<?xml version="1.0" encoding="UTF-8"?>
<svg width="35px" height="33px" viewBox="0 0 35 33" version="1.1" xmlns="http://www.w3.org/2000/svg" xmlns:xlink="http://www.w3.org/1999/xlink">
    <!-- Generator: sketchtool 40.3 (33839) - http://www.bohemiancoding.com/sketch -->
    <title>CB397B83-C84A-4C46-BE9A-934F0B10D041</title>
    <desc>Created with sketchtool.</desc>
    <defs></defs>
    <g id="components" stroke="none" stroke-width="1" fill="none" fill-rule="evenodd">
        <g id="icons" transform="translate(-208.000000, -1115.000000)" fill="#979797">
            <g id="ic/appointment/empty" transform="translate(194.000000, 1100.000000)">
                <g id="event-on-day-10" transform="translate(14.000000, 15.000000)">
                    <g id="Capa_1">
                        <g id="Group">
                            <path d="M27.0454493,4.7158997 L27.0454493,1.5698388 C27.0454493,0.702444961 26.331152,7.10542736e-15 25.4545507,7.10542736e-15 C24.5764052,7.10542736e-15 23.863652,0.702444961 23.863652,1.5698388 L23.863652,4.71584321 C23.863652,5.58323704 24.5779493,6.28568201 25.4545507,6.28568201 C26.3326961,6.2857385 27.0454493,5.58329353 27.0454493,4.7158997 Z M9.94320261,6.2857385 C10.6018546,6.2857385 11.136348,5.76089602 11.136348,5.10403796 L11.136348,1.18170053 C11.136348,0.529587576 10.6033987,7.10542736e-15 9.94320261,7.10542736e-15 L9.14775327,7.10542736e-15 C8.48910131,7.10542736e-15 7.95455065,0.524842472 7.95455065,1.18170053 L7.95455065,5.10245626 C7.95455065,5.75615092 8.4875,6.2857385 9.14775327,6.2857385 L9.94320261,6.2857385 Z M12.7272467,3.142841 L22.2726961,3.142841 L22.2726961,4.7142615 L12.7272467,4.7142615 L12.7272467,3.142841 Z M0,31.4285795 C0,33 1.75,33 1.75,33 L33.4091013,33 C33.4091013,33 35,33 35,31.4285795 L35,3.142841 L28.6364052,3.142841 L28.6364052,4.7142615 L33.4091013,4.7142615 L33.4091013,31.4285795 L1.59089869,31.4285795 L1.59089869,4.71431799 L6.36365196,4.71431799 L6.36365196,3.142841 L0,3.142841 L0,31.4285795 Z M24.6459947,17.6066209 C24.2033084,16.7274054 24.4368027,17.1936838 24.6459947,17.6066209 Z M23.5836515,25.9027029 L23.6119993,24.9989489 C23.6119993,24.9533955 23.6115492,24.907946 23.6106533,24.8626046 C23.5383489,21.2033282 20.5622127,19.2855273 16.9148327,19.2855273 C13.4947183,19.2855273 10.6648048,20.8465759 10.2658101,24.1873336 C10.2340246,24.4534713 10.2176666,24.7243224 10.2176666,24.9989489 L10.2176666,25.4913728 C10.2176666,25.8307354 9.94490929,26.1050483 9.6088333,26.1050483 C9.27275732,26.1050483 9,25.8307354 9,25.4913728 L9,24.9989489 C9,20.6001226 12.5507155,18 16.9148327,18 C21.2789498,18 24.8296659,20.6001226 24.8296659,24.9989489 L24.8013181,25.9027029 C24.8013181,26.2420655 24.5285607,26.5163785 24.1924848,26.5163785 C23.8564088,26.5163785 23.5836515,26.2420655 23.5836515,25.9027029 Z M20.3753373,16.126012 C21.1349152,16.126012 21.7506747,15.2023728 21.7506747,14.063006 C21.7506747,12.9236393 21.1349152,12 20.3753373,12 C19.6157595,12 19,12.9236393 19,14.063006 C19,15.2023728 19.6157595,16.126012 20.3753373,16.126012 Z M13.3753373,16.126012 C14.1349152,16.126012 14.7506747,15.2023728 14.7506747,14.063006 C14.7506747,12.9236393 14.1349152,12 13.3753373,12 C12.6157595,12 12,12.9236393 12,14.063006 C12,15.2023728 12.6157595,16.126012 13.3753373,16.126012 Z" id="Combined-Shape"></path>
                        </g>
                    </g>
                </g>
            </g>
        </g>
    </g>
</svg>