<?xml version="1.0" encoding="UTF-8"?>
<svg width="35px" height="33px" viewBox="0 0 35 33" version="1.1" xmlns="http://www.w3.org/2000/svg" xmlns:xlink="http://www.w3.org/1999/xlink">
    <!-- Generator: sketchtool 40.3 (33839) - http://www.bohemiancoding.com/sketch -->
    <title>629401BC-A4A4-456D-A752-7846CDE40835</title>
    <desc>Created with sketchtool.</desc>
    <defs></defs>
    <g id="components" stroke="none" stroke-width="1" fill="none" fill-rule="evenodd">
        <g id="icons" transform="translate(-338.000000, -1136.000000)">
            <g id="ic/appointment" transform="translate(324.000000, 1121.000000)">
                <g id="event-on-day-10" transform="translate(14.000000, 15.000000)">
                    <g id="Capa_1">
                        <g id="Group">
                            <path d="M27.0454493,4.7158997 L27.0454493,1.5698388 C27.0454493,0.702444961 26.331152,0 25.4545507,0 C24.5764052,0 23.863652,0.702444961 23.863652,1.5698388 L23.863652,4.71584321 C23.863652,5.58323704 24.5779493,6.28568201 25.4545507,6.28568201 C26.3326961,6.2857385 27.0454493,5.58329353 27.0454493,4.7158997 Z M9.94320261,6.2857385 C10.6018546,6.2857385 11.136348,5.76089602 11.136348,5.10403796 L11.136348,1.18170053 C11.136348,0.529587576 10.6033987,0 9.94320261,0 L9.14775327,0 C8.48910131,0 7.95455065,0.524842472 7.95455065,1.18170053 L7.95455065,5.10245626 C7.95455065,5.75615092 8.4875,6.2857385 9.14775327,6.2857385 L9.94320261,6.2857385 Z M12.7272467,3.142841 L22.2726961,3.142841 L22.2726961,4.7142615 L12.7272467,4.7142615 L12.7272467,3.142841 Z M0,31.4285795 C0,33 1.75,33 1.75,33 L33.4091013,33 C33.4091013,33 35,33 35,31.4285795 L35,3.142841 L28.6364052,3.142841 L28.6364052,4.7142615 L33.4091013,4.7142615 L33.4091013,31.4285795 L1.59089869,31.4285795 L1.59089869,4.71431799 L6.36365196,4.71431799 L6.36365196,3.142841 L0,3.142841 L0,31.4285795 Z M24.6459947,17.6066209 C24.2033084,16.7274054 24.4368027,17.1936838 24.6459947,17.6066209 Z M5.83333333,20.0191702 C6.47766554,20.0191702 7,19.4952093 7,18.8488708 C7,18.2025323 6.47766554,17.6785714 5.83333333,17.6785714 C5.18900113,17.6785714 4.66666667,18.2025323 4.66666667,18.8488708 C4.66666667,19.4952093 5.18900113,20.0191702 5.83333333,20.0191702 Z M5.83333333,25.8566209 C6.47766554,25.8566209 7,25.33266 7,24.6863215 C7,24.039983 6.47766554,23.5160221 5.83333333,23.5160221 C5.18900113,23.5160221 4.66666667,24.039983 4.66666667,24.6863215 C4.66666667,25.33266 5.18900113,25.8566209 5.83333333,25.8566209 Z M11.6666667,14.1263131 C12.3109989,14.1263131 12.8333333,13.6023522 12.8333333,12.9560137 C12.8333333,12.3096752 12.3109989,11.7857143 11.6666667,11.7857143 C11.0223345,11.7857143 10.5,12.3096752 10.5,12.9560137 C10.5,13.6023522 11.0223345,14.1263131 11.6666667,14.1263131 Z M11.6666667,20.0191702 C12.3109989,20.0191702 12.8333333,19.4952093 12.8333333,18.8488708 C12.8333333,18.2025323 12.3109989,17.6785714 11.6666667,17.6785714 C11.0223345,17.6785714 10.5,18.2025323 10.5,18.8488708 C10.5,19.4952093 11.0223345,20.0191702 11.6666667,20.0191702 Z M11.6666667,25.8566209 C12.3109989,25.8566209 12.8333333,25.33266 12.8333333,24.6863215 C12.8333333,24.039983 12.3109989,23.5160221 11.6666667,23.5160221 C11.0223345,23.5160221 10.5,24.039983 10.5,24.6863215 C10.5,25.33266 11.0223345,25.8566209 11.6666667,25.8566209 Z M17.5,14.1263131 C18.1443322,14.1263131 18.6666667,13.6023522 18.6666667,12.9560137 C18.6666667,12.3096752 18.1443322,11.7857143 17.5,11.7857143 C16.8556678,11.7857143 16.3333333,12.3096752 16.3333333,12.9560137 C16.3333333,13.6023522 16.8556678,14.1263131 17.5,14.1263131 Z M17.5,20.0191702 C18.1443322,20.0191702 18.6666667,19.4952093 18.6666667,18.8488708 C18.6666667,18.2025323 18.1443322,17.6785714 17.5,17.6785714 C16.8556678,17.6785714 16.3333333,18.2025323 16.3333333,18.8488708 C16.3333333,19.4952093 16.8556678,20.0191702 17.5,20.0191702 Z M17.5,25.8566209 C18.1443322,25.8566209 18.6666667,25.33266 18.6666667,24.6863215 C18.6666667,24.039983 18.1443322,23.5160221 17.5,23.5160221 C16.8556678,23.5160221 16.3333333,24.039983 16.3333333,24.6863215 C16.3333333,25.33266 16.8556678,25.8566209 17.5,25.8566209 Z M23.3333333,14.1263131 C23.9776655,14.1263131 24.5,13.6023522 24.5,12.9560137 C24.5,12.3096752 23.9776655,11.7857143 23.3333333,11.7857143 C22.6890011,11.7857143 22.1666667,12.3096752 22.1666667,12.9560137 C22.1666667,13.6023522 22.6890011,14.1263131 23.3333333,14.1263131 Z M23.3333333,20.0191702 C23.9776655,20.0191702 24.5,19.4952093 24.5,18.8488708 C24.5,18.2025323 23.9776655,17.6785714 23.3333333,17.6785714 C22.6890011,17.6785714 22.1666667,18.2025323 22.1666667,18.8488708 C22.1666667,19.4952093 22.6890011,20.0191702 23.3333333,20.0191702 Z M23.3333333,25.8566209 C23.9776655,25.8566209 24.5,25.33266 24.5,24.6863215 C24.5,24.039983 23.9776655,23.5160221 23.3333333,23.5160221 C22.6890011,23.5160221 22.1666667,24.039983 22.1666667,24.6863215 C22.1666667,25.33266 22.6890011,25.8566209 23.3333333,25.8566209 Z M29.1666667,14.1263131 C29.8109989,14.1263131 30.3333333,13.6023522 30.3333333,12.9560137 C30.3333333,12.3096752 29.8109989,11.7857143 29.1666667,11.7857143 C28.5223345,11.7857143 28,12.3096752 28,12.9560137 C28,13.6023522 28.5223345,14.1263131 29.1666667,14.1263131 Z M29.1666667,20.0191702 C29.8109989,20.0191702 30.3333333,19.4952093 30.3333333,18.8488708 C30.3333333,18.2025323 29.8109989,17.6785714 29.1666667,17.6785714 C28.5223345,17.6785714 28,18.2025323 28,18.8488708 C28,19.4952093 28.5223345,20.0191702 29.1666667,20.0191702 Z M29.1666667,25.8566209 C29.8109989,25.8566209 30.3333333,25.33266 30.3333333,24.6863215 C30.3333333,24.039983 29.8109989,23.5160221 29.1666667,23.5160221 C28.5223345,23.5160221 28,24.039983 28,24.6863215 C28,25.33266 28.5223345,25.8566209 29.1666667,25.8566209 Z" id="Combined-Shape" fill="#979797"></path>
                            <ellipse id="Oval-Copy-8" fill="#D0011B" cx="23.3333333" cy="18.8488708" rx="1.16666667" ry="1.17029939"></ellipse>
                        </g>
                    </g>
                </g>
            </g>
        </g>
    </g>
</svg>