<?xml version="1.0" encoding="UTF-8"?>
<svg width="22px" height="26px" viewBox="0 0 22 26" version="1.1" xmlns="http://www.w3.org/2000/svg" xmlns:xlink="http://www.w3.org/1999/xlink">
    <!-- Generator: sketchtool 40.3 (33839) - http://www.bohemiancoding.com/sketch -->
    <title>409284B8-831D-4C85-8E3C-C1A5FE0F5C30</title>
    <desc>Created with sketchtool.</desc>
    <defs></defs>
    <g id="home" stroke="none" stroke-width="1" fill="none" fill-rule="evenodd">
        <g id="home-color-both-names" transform="translate(-324.000000, -40.000000)" fill="#ffffff">
            <g id="ic/navbar/cart/normal" transform="translate(315.000000, 33.000000)">
                <g id="Group">
                    <g transform="translate(9.000000, 7.000000)">
                        <path d="M15.0443349,10.6785714 L15.0443349,13.4642857 C15.0443349,16.2801786 13.0583148,18.5714286 10.6175424,18.5714286 C8.17676995,18.5714286 6.19074985,16.2801786 6.19074985,13.4642857 L6.19074985,10.6785714 C6.19074985,10.4218214 6.01045866,10.2142857 5.78831416,10.2142857 C5.56616967,10.2142857 5.38587848,10.4218214 5.38587848,10.6785714 L5.38587848,13.4642857 C5.38587848,16.7922857 7.73288339,19.5 10.6175424,19.5 C13.5022014,19.5 15.8492063,16.7922857 15.8492063,13.4642857 L15.8492063,10.6785714 C15.8492063,10.4218214 15.6689151,10.2142857 15.4467706,10.2142857 C15.2246261,10.2142857 15.0443349,10.4218214 15.0443349,10.6785714 Z" id="Shape"></path>
                        <path d="M21.0011905,6.5 L21.0011905,0 L0.355952381,0 L0.355952381,6.5 L0,6.5 L0,23.7988214 C0,25.0124643 0.757110714,26 1.68792619,26 L19.6695726,26 C20.6000321,26 21.3571429,25.0124643 21.3571429,23.7988214 L21.3571429,6.5 L21.0011905,6.5 L21.0011905,6.5 Z M20.1113095,6.5 L18.2674762,3.29364286 L20.0806976,0.928571429 L20.2892857,0.928571429 L20.2892857,6.5 L20.1113095,6.5 L20.1113095,6.5 Z M3.91547619,6.5 L3.91547619,3.25 C3.91547619,3.23885714 3.91120476,3.22864286 3.91049286,3.2175 C3.9087131,3.18778571 3.90337381,3.15992857 3.89767857,3.13067857 C3.8937631,3.11117857 3.89411905,3.09121429 3.88806786,3.07264286 C3.88486429,3.06242857 3.87845714,3.05453571 3.87489762,3.04432143 C3.8652869,3.01878571 3.85176071,2.99696429 3.83823452,2.97375 C3.82826786,2.95703571 3.82257262,2.93614286 3.81082619,2.92128571 L2.28307857,0.928571429 L19.0740643,0.928571429 L17.5463167,2.92128571 C17.5349262,2.93614286 17.528875,2.95703571 17.5189083,2.97375 C17.5053821,2.99696429 17.4922119,3.01878571 17.4826012,3.04432143 C17.4786857,3.05453571 17.4726345,3.06196429 17.469075,3.07264286 C17.4630238,3.09121429 17.4633798,3.11164286 17.4594643,3.13067857 C17.4534131,3.15992857 17.4480738,3.18732143 17.44665,3.2175 C17.4459381,3.22864286 17.4416667,3.23885714 17.4416667,3.25 L17.4416667,6.5 L3.91547619,6.5 L3.91547619,6.5 Z M1.06785714,0.928571429 L1.27644524,0.928571429 L3.08966667,3.29364286 L1.24583333,6.5 L1.06785714,6.5 L1.06785714,0.928571429 L1.06785714,0.928571429 Z M20.6452381,23.7988214 C20.6452381,24.5008214 20.2074167,25.0714286 19.6692167,25.0714286 L1.68792619,25.0714286 C1.14972619,25.0714286 0.711904762,24.5008214 0.711904762,23.7988214 L0.711904762,7.42857143 L20.6452381,7.42857143 L20.6452381,23.7988214 L20.6452381,23.7988214 Z" id="Shape"></path>
                    </g>
                </g>
            </g>
        </g>
    </g>
</svg>
