<?xml version="1.0" encoding="UTF-8"?>
<svg width="52px" height="38px" viewBox="0 0 52 38" version="1.1" xmlns="http://www.w3.org/2000/svg" xmlns:xlink="http://www.w3.org/1999/xlink">
    <!-- Generator: sketchtool 40.3 (33839) - http://www.bohemiancoding.com/sketch -->
    <title>F2243A88-9C1A-48FB-A331-205498D78269</title>
    <desc>Created with sketchtool.</desc>
    <defs></defs>
    <g id="components" stroke="none" stroke-width="1" fill="none" fill-rule="evenodd">
        <g id="icons" transform="translate(-103.000000, -1003.000000)">
            <g id="ic/send" transform="translate(102.000000, 991.000000)">
                <g id="package" fill-rule="evenodd" transform="translate(15.359344, 12.650684)" fill="#9B9B9B">
                    <path d="M36.3778035,5.9691912 C36.3324032,5.95408889 18.5959918,0.0566336926 18.5959918,0.0566336926 C18.4370905,-0.0188778975 18.2857559,-0.0188778975 18.1268546,0.0566336926 L0.579611397,5.81816802 C0.140741149,5.99939584 0.0348069507,6.37695379 0.0348069507,6.5959374 L0.0348069507,30.2537186 C0.0348069507,30.6463789 0.269375532,30.9559764 0.579611397,31.031488 L17.9074195,36.5589364 C18.172255,36.6571015 18.4597906,36.6948572 18.8229936,36.5589364 L36.143235,31.031488 C36.4534708,30.8729136 36.6880394,30.5633161 36.6880394,30.2537186 L36.6880394,6.5959374 C36.6880394,6.36185147 36.6123721,6.12776554 36.3778035,5.9691912 L36.3778035,5.9691912 Z M18.3614232,1.68768404 L33.411646,6.51287465 L27.729033,8.33270398 L12.8982453,3.46220641 L18.3614232,1.68768404 L18.3614232,1.68768404 Z M17.5820502,34.7617605 L1.593553,29.702484 L1.593553,7.69840662 L17.5820502,12.8029901 L17.5820502,34.7617605 L17.5820502,34.7617605 Z M18.3614232,11.3380653 L3.31120036,6.5959374 L10.4012249,4.28528274 L25.1790455,9.15578031 L18.3614232,11.3380653 L18.3614232,11.3380653 Z M19.1407962,34.7617605 L19.1407962,12.7425808 L27.0934278,10.2280449 L27.0934278,12.6670693 L28.6521738,12.0025673 L28.6521738,9.73721955 L35.1217266,7.69840662 L35.1217266,29.6269724 L35.1292934,29.6269724 L19.1407962,34.7617605 L19.1407962,34.7617605 Z" id="Shape"></path>
                </g>
                <path d="M1.5973563,25.5 L12.08268,25.5" id="Line" stroke="#979797" stroke-linecap="round"></path>
                <path d="M5.52935267,29.5 L12.08268,29.5" id="Line-Copy" stroke="#979797" stroke-linecap="round"></path>
                <path d="M8.15068359,33.5 L12.08268,33.5" id="Line-Copy-2" stroke="#979797" stroke-linecap="round"></path>
            </g>
        </g>
    </g>
</svg>