<?xml version="1.0" encoding="UTF-8" standalone="no"?>
<svg width="24px" height="24px" viewBox="0 0 24 24" version="1.1" xmlns="http://www.w3.org/2000/svg" xmlns:xlink="http://www.w3.org/1999/xlink">
    <!-- Generator: sketchtool 41 (35326) - http://www.bohemiancoding.com/sketch -->
    <title>B6FE76DC-E3F4-4756-8398-4E4961F20E32</title>
    <desc>Created with sketchtool.</desc>
    <defs></defs>
    <g id="components" stroke="none" stroke-width="1" fill="none" fill-rule="evenodd">
        <g id="icons" transform="translate(-305.000000, -184.000000)" fill="#F37474">
            <g id="ic/store/chat" transform="translate(299.000000, 178.000000)">
                <g id="chat" transform="translate(6.000000, 6.000000)">
                    <g id="Capa_1">
                        <g id="Group">
                            <path d="M20.4776829,3.51627907 C18.2096068,1.24820296 15.2007273,0 11.9939619,0 C8.78719662,0 5.77831712,1.24820296 3.51024101,3.51627907 C-0.873691332,7.90021142 -1.17813108,14.9175476 2.75421564,19.6515856 C2.36859197,20.427907 1.74956448,21.3310782 0.831171247,21.7826638 C0.389733615,22.0008457 0.141107822,22.4727273 0.217217759,22.9598309 C0.293327696,23.4469345 0.668803383,23.8274841 1.15590698,23.9035941 C1.38423679,23.9391121 1.70897252,23.97463 2.10474419,23.97463 C3.1652093,23.97463 4.728,23.7260042 6.32630867,22.5742072 C8.10728118,23.5331924 10.0556956,24 11.9888879,24 C15.0941734,24 18.1690148,22.797463 20.4827569,20.4837209 C22.750833,18.2156448 23.9990359,15.2067653 23.9990359,12 C23.9990359,8.79323467 22.745759,5.78435518 20.4776829,3.51627907 Z M19.2879718,19.2942082 C15.9635205,22.6186594 10.8167775,23.2786246 6.76833464,20.899795 C6.50237854,20.7421914 6.17239597,20.7914425 5.96061612,21.0032224 C5.94091567,21.0130726 5.92121521,21.0278479 5.90643988,21.0426233 C4.57173427,22.076897 3.26165422,22.293602 2.39483434,22.293602 L2.38990923,22.293602 C3.38970716,21.5646853 4.02012162,20.4811604 4.38950509,19.6389661 C4.44860644,19.4961378 4.45845667,19.3483844 4.42398088,19.2104813 C4.40920554,19.0775032 4.3550293,18.9445252 4.26145215,18.8361727 C0.656269471,14.7631043 0.843423763,8.55746196 4.69486209,4.70602364 C8.71867937,0.682206357 15.2641545,0.682206357 19.2830466,4.70602364 C23.311789,8.72984092 23.311789,15.2703909 19.2879718,19.2942082 Z" id="Shape"></path>
                            <g id="Group-2" transform="translate(6.000000, 11.000000)">
                                <ellipse id="Oval" cx="6.15167865" cy="1.1577167" rx="1" ry="1"></ellipse>
                                <ellipse id="Oval" cx="10.495019" cy="1.1577167" rx="1" ry="1"></ellipse>
                                <ellipse id="Oval" cx="1.80833827" cy="1.1577167" rx="1" ry="1"></ellipse>
                            </g>
                        </g>
                    </g>
                </g>
            </g>
        </g>
    </g>
</svg>