<?xml version="1.0" encoding="UTF-8" standalone="no"?>
<svg width="27px" height="34px" viewBox="0 0 27 34" version="1.1" xmlns="http://www.w3.org/2000/svg" xmlns:xlink="http://www.w3.org/1999/xlink">
    <!-- Generator: sketchtool 39.1 (31720) - http://www.bohemiancoding.com/sketch -->
    <title>E29A5E68-6A97-4A8C-9F00-5115DC0251E1</title>
    <desc>Created with sketchtool.</desc>
    <defs></defs>
    <g id="Symbols" stroke="none" stroke-width="1" fill="none" fill-rule="evenodd">
        <g id="icAnalyticsNormal" transform="translate(-7.000000, -3.000000)" fill="#4A4A4A">
            <g id="Group" transform="translate(6.000000, 3.000000)">
                <path d="M10,31.8110046 C10,32.6394318 10.6715729,33.3110046 11.5,33.3110046 C12.3284271,33.3110046 13,32.6394318 13,31.8110046 L13,15.8110051 C13,14.982578 12.3284271,14.3110051 11.5,14.3110051 C10.6715729,14.3110051 10,14.982578 10,15.8110051 L10,31.8110046 Z" id="Path-4"></path>
                <path d="M2.46054545,31.8110046 C2.46054545,32.6394318 3.13211833,33.3110046 3.96054545,33.3110046 C4.78897258,33.3110046 5.46054545,32.6394318 5.46054545,31.8110046 L5.46054545,22.4886171 C5.46054545,21.66019 4.78897258,20.9886171 3.96054545,20.9886171 C3.13211833,20.9886171 2.46054545,21.66019 2.46054545,22.4886171 L2.46054545,31.8110046 Z" id="Path-4-Copy-2"></path>
                <path d="M17.4429091,31.8110046 C17.4429091,32.6394318 18.114482,33.3110046 18.9429091,33.3110046 C19.7713362,33.3110046 20.4429091,32.6394318 20.4429091,31.8110046 L20.4429091,19.4874019 C20.4429091,18.6589747 19.7713362,17.9874019 18.9429091,17.9874019 C18.114482,17.9874019 17.4429091,18.6589747 17.4429091,19.4874019 L17.4429091,31.8110046 Z" id="Path-4-Copy"></path>
                <path d="M13.2145919,8.08064738 L11.742296,8.02267407 L16.692154,13.8609045 C17.1043447,14.3470729 17.8600701,14.3287124 18.2481654,13.823101 L26.4907622,3.08462688 C26.8270406,2.64652266 26.7444944,2.01876154 26.3063902,1.68248318 C25.8682859,1.34620482 25.2405248,1.42875099 24.9042465,1.86685521 L16.6616496,12.6053293 L18.217661,12.5675258 L13.267803,6.72929536 C12.8888282,6.28230439 12.2084554,6.25551395 11.795507,6.67132205 L1.24777247,17.2920999 C0.858598022,17.6839694 0.860782786,18.3171306 1.25265228,18.7063051 C1.64452176,19.0954795 2.27768297,19.0932947 2.66685742,18.7014253 L13.2145919,8.08064738 Z" id="Path-2"></path>
                <path d="M26.4126832,2.67347624 L25.0418108,1.70612285 L24.7850892,8.28822868 C24.7635648,8.84009383 25.193491,9.30491788 25.7453561,9.32644225 C26.2972213,9.34796662 26.7620453,8.91804048 26.7835697,8.36617533 L27.0402913,1.7840695 C27.0685203,1.06030305 26.3418601,0.547536724 25.6694189,0.816716107 L19.9923299,3.08926463 C19.4795997,3.29451139 19.2303352,3.87654668 19.435582,4.38927684 C19.6408287,4.90200699 20.222864,5.15127153 20.7355942,4.94602476 L26.4126832,2.67347624 Z" id="Path-3"></path>
            </g>
        </g>
    </g>
</svg>