<?xml version="1.0" encoding="UTF-8" standalone="no"?>
<svg width="30px" height="32px" viewBox="0 0 30 32" version="1.1" xmlns="http://www.w3.org/2000/svg" xmlns:xlink="http://www.w3.org/1999/xlink">
    <!-- Generator: sketchtool 39.1 (31720) - http://www.bohemiancoding.com/sketch -->
    <title>22E34500-DA84-46B9-91DB-2B1719190646</title>
    <desc>Created with sketchtool.</desc>
    <defs></defs>
    <g id="Symbols" stroke="none" stroke-width="1" fill="none" fill-rule="evenodd">
        <g id="icInventoryNormal" transform="translate(-5.000000, -4.000000)" fill="#4A4A4A">
            <path d="M34.3757047,11.5441114 C34.3757047,11.4225412 34.3487545,11.3009709 34.2948541,11.1861545 C34.1870534,10.9565217 33.9781894,10.8011819 33.7491128,10.7539046 L20.0247297,4.08104686 C19.8023907,3.97298438 19.5396263,3.97298438 19.3172873,4.08104686 L5.45815319,10.8146897 C5.18865131,10.9430139 5.01347509,11.2131701 5,11.5170958 L5,11.5238497 L5,11.5508653 L5,28.4491347 C5,28.7598143 5.17517622,29.0434783 5.45815319,29.1785564 L19.3172873,35.9121992 C19.3240248,35.9121992 19.3240248,35.9121992 19.3307624,35.9189531 C19.350975,35.925707 19.3711876,35.932461 19.3914003,35.9459688 C19.3981378,35.9459688 19.4048754,35.9527227 19.4183505,35.9527227 C19.4385631,35.9594766 19.4587758,35.9662305 19.4789884,35.9729844 C19.4857259,35.9729844 19.4924635,35.9797383 19.499201,35.9797383 C19.5194137,35.9864922 19.5463639,35.9864922 19.5665765,35.9932461 L19.5867891,35.9932461 C19.6137393,35.9932461 19.6474271,36 19.6743773,36 C19.7013274,36 19.7350152,36 19.7619654,35.9932461 L19.782178,35.9932461 C19.8023907,35.9932461 19.8293408,35.9864922 19.8495535,35.9797383 C19.856291,35.9797383 19.8630286,35.9729844 19.8697661,35.9729844 C19.8899788,35.9662305 19.9101914,35.9594766 19.930404,35.9527227 C19.9371416,35.9527227 19.9438791,35.9459688 19.9573542,35.9459688 C19.9775669,35.9392149 19.9977795,35.932461 20.0179922,35.9189531 C20.0247297,35.9189531 20.0247297,35.9189531 20.0314672,35.9121992 L33.9310266,29.1582946 C34.207266,29.0232165 34.3891798,28.7395526 34.3891798,28.4288729 L34.3891798,11.5643732 C34.3757047,11.5576192 34.3757047,11.5508653 34.3757047,11.5441114 L34.3757047,11.5441114 Z M19.6676397,5.70873786 L31.6874235,11.5508653 L27.2608551,13.7053609 L15.2410714,7.86323343 L19.6676397,5.70873786 L19.6676397,5.70873786 Z M19.6676397,17.3929928 L7.64785595,11.5508653 L13.388246,8.76150274 L25.4080297,14.6036302 L19.6676397,17.3929928 L19.6676397,17.3929928 Z M6.61701127,12.8543689 L18.8591341,18.8045589 L18.8591341,33.8860279 L6.61701127,27.9358379 L6.61701127,12.8543689 L6.61701127,12.8543689 Z M20.4761453,33.8860279 L20.4761453,18.8045589 L26.2232729,16.0084424 L26.2232729,19.9527227 C26.2232729,20.3984804 26.5871004,20.7631912 27.0317785,20.7631912 C27.4764566,20.7631912 27.8402842,20.3984804 27.8402842,19.9527227 L27.8402842,15.2182355 L32.7586934,12.8273533 L32.7586934,27.9088223 L20.4761453,33.8860279 L20.4761453,33.8860279 Z" id="Shape"></path>
        </g>
    </g>
</svg>