<?xml version="1.0" encoding="UTF-8" standalone="no"?>
<svg width="35px" height="35px" viewBox="0 0 35 35" version="1.1" xmlns="http://www.w3.org/2000/svg" xmlns:xlink="http://www.w3.org/1999/xlink">
    <!-- Generator: Sketch 41 (35326) - http://www.bohemiancoding.com/sketch -->
    <title>ic/delete</title>
    <desc>Created with Sketch.</desc>
    <defs></defs>
    <g id="Page-1" stroke="none" stroke-width="1" fill="none" fill-rule="evenodd">
        <g id="ic/delete" fill="#252525">
            <g id="delete-button" transform="translate(9.000000, 6.000000)">
                <g id="Group">
                    <path d="M15.4294987,2.75233333 L11.9724859,2.75233333 C11.8000358,1.20552381 10.5277442,0 8.98683376,0 C7.44596931,0 6.17386189,1.20547619 6.00141176,2.75233333 L2.54421483,2.75233333 C1.1451867,2.75233333 0.00713554987,3.92985714 0.00713554987,5.37695238 L0.00713554987,5.51161905 C0.00713554987,6.61747619 0.672813299,7.564 1.61056266,7.94966667 L1.61056266,20.3481905 C1.61056266,21.7953333 2.74875192,22.9728095 4.14768798,22.9728095 L13.8260716,22.9728095 C15.2250537,22.9728095 16.3631509,21.7952381 16.3631509,20.3481905 L16.3631509,7.94971429 C17.3008542,7.564 17.966578,6.61747619 17.966578,5.51166667 L17.966578,5.377 C17.966578,3.92985714 16.8284348,2.75233333 15.4294987,2.75233333 Z M8.98683376,1.24471429 C9.86321739,1.24471429 10.5947263,1.89447619 10.7565882,2.75233333 L7.21740153,2.75233333 C7.37921739,1.89442857 8.11077238,1.24471429 8.98683376,1.24471429 Z M15.159821,20.3481905 C15.159821,21.1090476 14.5613555,21.7281429 13.8260256,21.7281429 L4.14764194,21.7281429 C3.41231202,21.7281429 2.81384655,21.109 2.81384655,20.3481905 L2.81384655,8.1362381 L15.159821,8.1362381 L15.159821,20.3481905 Z M16.7632481,5.51161905 C16.7632481,6.27247619 16.1647826,6.89157143 15.4294527,6.89157143 L2.54421483,6.89157143 C1.80888491,6.89157143 1.21041944,6.27247619 1.21041944,5.51161905 L1.21041944,5.37695238 C1.21041944,4.61609524 1.80888491,3.997 2.54421483,3.997 L15.4294987,3.997 C16.1648286,3.997 16.7632941,4.61609524 16.7632941,5.37695238 L16.7632941,5.51161905 L16.7632481,5.51161905 Z" id="Shape"></path>
                    <path d="M5.76110486,20.1363333 C6.0933913,20.1363333 6.3627468,19.857619 6.3627468,19.5140476 L6.3627468,12.5067143 C6.3627468,12.1630952 6.09334527,11.8843333 5.76110486,11.8843333 C5.42886445,11.8843333 5.15946292,12.1630952 5.15946292,12.5067143 L5.15946292,19.5140476 C5.15941688,19.8577143 5.42881841,20.1363333 5.76110486,20.1363333 Z" id="Shape"></path>
                    <path d="M8.98683376,20.1363333 C9.3191202,20.1363333 9.58852174,19.857619 9.58852174,19.5140476 L9.58852174,12.5067143 C9.58852174,12.1630952 9.31902813,11.8843333 8.98683376,11.8843333 C8.65459335,11.8843333 8.38519182,12.1630952 8.38519182,12.5067143 L8.38519182,19.5140476 C8.38519182,19.8577143 8.65454731,20.1363333 8.98683376,20.1363333 Z" id="Shape"></path>
                    <path d="M12.2125627,20.1363333 C12.5448031,20.1363333 12.8141586,19.857619 12.8141586,19.5140476 L12.8141586,12.5067143 C12.8141586,12.1630952 12.544757,11.8843333 12.2125627,11.8843333 C11.8802302,11.8843333 11.6108747,12.1630952 11.6108747,12.5067143 L11.6108747,19.5140476 C11.6108286,19.8577143 11.8803223,20.1363333 12.2125627,20.1363333 Z" id="Shape"></path>
                </g>
            </g>
        </g>
    </g>
</svg>