<?xml version="1.0" encoding="UTF-8" standalone="no"?>
<svg width="32px" height="23px" viewBox="0 0 32 23" version="1.1" xmlns="http://www.w3.org/2000/svg" xmlns:xlink="http://www.w3.org/1999/xlink">
    <!-- Generator: sketchtool 39.1 (31720) - http://www.bohemiancoding.com/sketch -->
    <title>734ACCE7-BE4E-4DD0-ABBC-0F7BCF5BE63F</title>
    <desc>Created with sketchtool.</desc>
    <defs></defs>
    <g id="Symbols" stroke="none" stroke-width="1" fill="none" fill-rule="evenodd">
        <g id="icOrdersFocused" transform="translate(-4.000000, -8.000000)" fill="#4A4A4A">
            <g id="Group" transform="translate(4.000000, 8.000000)">
                <path d="M29.2307302,18.3549841 C30.2721074,18.3549841 31.1170159,19.2002652 31.1170159,20.2422857 C31.1170159,21.2841765 30.2722372,22.1290794 29.2307302,22.1290794 L10.1409524,22.1290794 C9.09899952,22.1290794 8.25415873,21.2842386 8.25415873,20.2422857 C8.25415873,19.199887 9.09893744,18.3549841 10.1409524,18.3549841 L29.2307302,18.3549841 Z" id="Path"></path>
                <path d="M0.500507937,20.2422857 C0.500507937,19.1806016 1.36117299,18.3199365 2.42285714,18.3199365 C3.48454129,18.3199365 4.34520635,19.1806016 4.34520635,20.2422857 C4.34520635,21.3039699 3.48454129,22.1646349 2.42285714,22.1646349 C1.36117299,22.1646349 0.500507937,21.3039699 0.500507937,20.2422857 Z" id="Path"></path>
                <path d="M29.2307302,9.35498413 C30.2721074,9.35498413 31.1170159,10.2002652 31.1170159,11.2422857 C31.1170159,12.2841765 30.2722372,13.1290794 29.2307302,13.1290794 L10.1409524,13.1290794 C9.09899952,13.1290794 8.25415873,12.2842386 8.25415873,11.2422857 C8.25415873,10.199887 9.09893744,9.35498413 10.1409524,9.35498413 L29.2307302,9.35498413 Z" id="Path"></path>
                <path d="M0.500507937,11.2422857 C0.500507937,10.1806016 1.36117299,9.31993651 2.42285714,9.31993651 C3.48454129,9.31993651 4.34520635,10.1806016 4.34520635,11.2422857 C4.34520635,12.3039699 3.48454129,13.1646349 2.42285714,13.1646349 C1.36117299,13.1646349 0.500507937,12.3039699 0.500507937,11.2422857 Z" id="Path"></path>
                <path d="M29.2307302,0.354984127 C30.2721074,0.354984127 31.1170159,1.20026521 31.1170159,2.24228571 C31.1170159,3.28417647 30.2722372,4.12907937 29.2307302,4.12907937 L10.1409524,4.12907937 C9.09899952,4.12907937 8.25415873,3.28423858 8.25415873,2.24228571 C8.25415873,1.19988701 9.09893744,0.354984127 10.1409524,0.354984127 L29.2307302,0.354984127 Z" id="Path"></path>
                <path d="M0.500507937,2.24228571 C0.500507937,1.18060156 1.36117299,0.319936508 2.42285714,0.319936508 C3.48454129,0.319936508 4.34520635,1.18060156 4.34520635,2.24228571 C4.34520635,3.30396986 3.48454129,4.16463492 2.42285714,4.16463492 C1.36117299,4.16463492 0.500507937,3.30396986 0.500507937,2.24228571 Z" id="Path"></path>
            </g>
        </g>
    </g>
</svg>
