<?xml version="1.0" encoding="UTF-8" standalone="no"?>
<svg width="32px" height="32px" viewBox="0 0 32 32" version="1.1" xmlns="http://www.w3.org/2000/svg" xmlns:xlink="http://www.w3.org/1999/xlink">
    <!-- Generator: sketchtool 39.1 (31720) - http://www.bohemiancoding.com/sketch -->
    <title>086B7DAF-A398-42BE-9C33-D51820DEBCF5</title>
    <desc>Created with sketchtool.</desc>
    <defs></defs>
    <g id="Symbols" stroke="none" stroke-width="1" fill="none" fill-rule="evenodd">
        <g id="icShowroomsNormal" transform="translate(-4.000000, -4.000000)" fill="#4A4A4A">
            <path d="M35.5604775,15.2720343 C35.6503489,15.667306 35.6952991,15.9948004 35.6952991,16.2803419 C35.6952991,18.0241479 34.6735288,19.6039064 33.0999767,20.3773472 L32.9602564,20.4460233 L32.9602564,20.6017094 L32.9602564,34.7965812 C32.9602564,35.2875698 32.5798775,35.6679487 32.0888889,35.6679487 L8.37606838,35.6679487 C7.88507973,35.6679487 7.50470085,35.2875698 7.50470085,34.7965812 L7.50470085,20.7931624 L7.50470085,20.6162836 L7.33790588,20.5574148 C5.54749243,19.9255042 4.33205128,18.2209221 4.33205128,16.2803419 C4.33205128,15.9307442 4.38036319,15.5985998 4.48771258,15.1960396 C4.49615385,15.0745079 4.50494102,15.0364301 4.53802553,14.9371766 L4.64742723,14.6089715 C4.6559617,14.5975209 4.66558577,14.5667239 4.68014246,14.5084972 C4.68609859,14.4846726 8.11904281,4.93237551 8.11904281,4.93237551 C8.24492746,4.59675216 8.58846101,4.35940171 8.95042735,4.35940171 L31.0495726,4.35940171 C31.4283078,4.35940171 31.7513002,4.58669264 31.882157,4.93564411 L35.3271713,14.5051927 C35.359626,14.601304 35.359626,14.601304 35.3661368,14.6143675 L35.4040635,14.7626974 C35.4958494,14.9558439 35.5381304,15.0932573 35.5604775,15.2720343 Z M31.1901709,33.9252137 L31.1901709,33.6752137 L31.1901709,21.0940171 L31.1901709,20.8440171 L30.9401709,20.8440171 C30.8240975,20.8213215 30.7946168,20.8166667 30.7487179,20.8166667 C30.730868,20.8166667 30.7065286,20.8139623 30.6473212,20.8055041 C30.5629389,20.7934495 30.5257398,20.7893162 30.4752137,20.7893162 C30.3591402,20.7666207 30.3296595,20.7619658 30.2837607,20.7619658 C30.2544145,20.7511456 30.1820411,20.7348616 30.0977077,20.7143481 C30.0432725,20.7009868 30.0432725,20.7009868 29.988839,20.6873789 C29.9650739,20.6728076 29.9110911,20.6525641 29.8461538,20.6525641 C28.9840882,20.4293536 28.1793794,19.9172662 27.5777969,19.1849049 L27.3870045,18.9526358 L27.1933876,19.1825558 C26.3348824,20.2020307 25.0497345,20.8166667 23.6923077,20.8166667 C22.3142804,20.8166667 21.0362313,20.2123717 20.1932683,19.1850106 L20.0024968,18.9525078 L19.8087722,19.1825558 C18.950267,20.2020307 17.6651191,20.8166667 16.3076923,20.8166667 C14.929665,20.8166667 13.651616,20.2123717 12.808653,19.1850106 L12.6180679,18.9527351 L12.4243117,19.182372 C11.7087957,20.030391 10.7429747,20.5870795 9.64871999,20.765214 C9.64299004,20.7619658 9.61350936,20.7666207 9.54413336,20.7804959 C9.51094526,20.7871335 9.2474359,20.7893162 9.2474359,20.7893162 L9.2474359,21.0393162 L9.2474359,33.6752137 L9.2474359,33.9252137 L9.4974359,33.9252137 L30.9401709,33.9252137 L31.1901709,33.9252137 Z M33.9252137,16.2803419 C33.9252137,16.0207731 33.8895707,15.7784011 33.8052685,15.4973938 C33.815812,15.5185315 33.802786,15.4707695 33.7893076,15.435473 C33.7822731,15.409231 33.7209315,15.2166696 33.7209315,15.2166696 C33.7078722,15.1660607 33.7078722,15.1660607 33.7022046,15.1515968 C33.6865279,15.1149353 33.6865279,15.1149353 33.6800171,15.1018718 L30.4916321,6.24010646 L30.4321169,6.07478632 L30.2564103,6.07478632 L9.74358974,6.07478632 L9.5679427,6.07478632 L9.50839491,6.24003143 L6.22634363,15.3477237 C6.21153846,15.4045714 6.21772686,15.3818806 6.21069242,15.4081225 C6.19721403,15.4434191 6.18418803,15.4911811 6.18418803,15.5418803 C6.11042926,15.7510507 6.07478632,15.9934227 6.07478632,16.2529915 C6.07478632,17.6363778 7.06784579,18.7979028 8.4133983,19.0425487 L8.54017094,19.0465812 L8.54017094,18.7965812 L8.42836754,19.020188 C8.51163796,19.0618232 8.57218007,19.0739316 8.64957265,19.0739316 C8.66742259,19.0739316 8.69176196,19.076636 8.75096945,19.0850942 C8.83535171,19.0971488 8.87255079,19.1012821 8.92307692,19.1012821 C9.07826704,19.1012821 9.19667935,19.0864805 9.45648436,19.0431797 C9.63455805,19.0076975 9.75101201,18.9753492 9.89113827,18.9192987 L9.97506729,18.8639562 C9.85043144,18.9125737 9.85043144,18.9125737 9.85299145,18.9098291 C10.9354771,18.4899117 11.6283051,17.5717059 11.7158489,16.4919988 L11.7166667,16.4444444 L11.4666667,16.4444444 L11.6902735,16.5562478 C11.7358408,16.4651132 11.7440171,16.3997028 11.7440171,16.2803419 C11.7440171,15.7893532 12.124396,15.4089744 12.6153846,15.4089744 C13.1063733,15.4089744 13.4867521,15.7893532 13.4867521,16.2803419 L13.4867521,16.417094 L13.4867521,16.4717949 C13.5761498,17.5549651 14.2784444,18.4941784 15.2563331,18.8914457 C15.3735002,18.9399241 15.3735002,18.9399241 15.4051282,18.9371795 C15.4027725,18.9416593 15.4434322,18.9528407 15.5384194,18.9813369 C15.6485604,19.0143792 15.6990688,19.028269 15.7663556,19.0417264 C16.0340899,19.0864805 16.1525022,19.1012821 16.3076923,19.1012821 C16.4628824,19.1012821 16.5812947,19.0864805 16.8410997,19.0431797 C17.0688397,18.9977642 17.1704409,18.9723639 17.3031041,18.9192987 L17.3870331,18.8639562 C17.2623973,18.9125737 17.2623973,18.9125737 17.2649573,18.9098291 C18.3474429,18.4899117 19.0402709,17.5717059 19.1278147,16.4919988 L19.1286325,16.4444444 L18.8786325,16.4444444 L19.1022393,16.5562478 C19.1478066,16.4651132 19.1559829,16.3997028 19.1559829,16.2803419 C19.1559829,15.7893532 19.5363618,15.4089744 20.0273504,15.4089744 C20.5183391,15.4089744 20.8987179,15.7893532 20.8987179,16.2803419 C20.8987179,16.3371859 20.9070248,16.3731822 20.9252223,16.4277749 C20.9275376,16.4347207 20.9260684,16.4717949 20.9260684,16.4717949 C21.015466,17.5549651 21.7177607,18.4941784 22.6956493,18.8914457 C22.8128164,18.9399241 22.8128164,18.9399241 22.8444444,18.9371795 C22.8185805,18.9384076 22.8539086,18.9493544 22.9503582,18.980276 C23.0429924,19.0095289 23.1083795,19.027738 23.1783214,19.0417264 C23.4460557,19.0864805 23.564468,19.1012821 23.7196581,19.1012821 C23.8748482,19.1012821 23.9932605,19.0864805 24.2530656,19.0431797 C24.4808055,18.9977642 24.5824067,18.9723639 24.7150699,18.9192987 L24.7989989,18.8639562 C24.6743631,18.9125737 24.6743631,18.9125737 24.6769231,18.9098291 C25.7594087,18.4899117 26.4522367,17.5717059 26.5397806,16.4919988 L26.5405983,16.4444444 L26.2905983,16.4444444 L26.5142051,16.5562478 C26.5597724,16.4651132 26.5679487,16.3997028 26.5679487,16.2803419 C26.5679487,15.7893532 26.9483276,15.4089744 27.4393162,15.4089744 C27.9303049,15.4089744 28.3106838,15.7893532 28.3106838,16.2803419 L28.3106838,16.417094 L28.3106838,16.4717949 C28.4000814,17.5549651 29.1023761,18.4941784 30.0802647,18.8914457 C30.1974318,18.9399241 30.1974318,18.9399241 30.2290598,18.9371795 C30.2031959,18.9384076 30.238524,18.9493544 30.3349736,18.980276 C30.4276077,19.0095289 30.4929949,19.027738 30.5629368,19.0417264 C30.8306711,19.0864805 30.9490834,19.1012821 31.1042735,19.1012821 C31.1943038,19.1012821 31.2389263,19.1006446 31.2959188,19.0974783 C31.3792984,19.0928461 31.4526934,19.0834096 31.520463,19.0664672 C31.6809484,19.0263459 31.7553894,19.0088304 31.8644136,18.9870255 L31.8153846,18.4918803 L31.8153846,18.9918803 C33.0816347,18.6138317 33.9252137,17.5180487 33.9252137,16.2803419 Z" id="Shape"></path>
        </g>
    </g>
</svg>
