<?xml version="1.0" encoding="UTF-8"?>
<svg width="25px" height="24px" viewBox="0 0 25 24" version="1.1" xmlns="http://www.w3.org/2000/svg" xmlns:xlink="http://www.w3.org/1999/xlink">
    <!-- Generator: sketchtool 40.3 (33839) - http://www.bohemiancoding.com/sketch -->
    <title>EC0BAA8A-34C2-478C-92EA-3D7FCC0B41D9</title>
    <desc>Created with sketchtool.</desc>
    <defs></defs>
    <g id="components" stroke="none" stroke-width="1" fill="none" fill-rule="evenodd">
        <g id="icons" transform="translate(-227.000000, -229.000000)" fill="#F37474">
            <g id="ic/productDetail/AddList/add" transform="translate(222.000000, 223.000000)">
                <g id="Capa_1" transform="translate(5.000000, 6.000000)">
                    <path d="M24.9586772,6.93120785 C24.5937502,2.91460752 21.7507819,0.000480799657 18.1928644,0.000480799657 C15.8225221,0.000480799657 13.6521924,1.27604229 12.4309613,3.32040243 C11.2207886,1.24959831 9.13940686,0 6.80704773,0 C3.24961107,0 0.406161901,2.91412672 0.0417157611,6.93072705 C0.0128677817,7.10814212 -0.105408934,8.04185506 0.254229209,9.56454757 C0.772531239,11.7608404 1.96972238,13.758563 3.71550594,15.3403938 L12.4251917,23.2442594 L21.2844062,15.3408746 C23.0301897,13.758563 24.2273809,11.7613212 24.7456829,9.56454757 C25.1053211,8.04233586 24.9870443,7.10862292 24.9586772,6.93120785 L24.9586772,6.93120785 Z" id="Path"></path>
                </g>
            </g>
        </g>
    </g>
</svg>