<?xml version="1.0" encoding="UTF-8"?>
<svg width="40px" height="40px" viewBox="0 0 40 40" version="1.1" xmlns="http://www.w3.org/2000/svg" xmlns:xlink="http://www.w3.org/1999/xlink">
    <!-- Generator: sketchtool 40.3 (33839) - http://www.bohemiancoding.com/sketch -->
    <title>6BCDA877-9A80-4D24-BD40-07F0A80CDFDD</title>
    <desc>Created with sketchtool.</desc>
    <defs></defs>
    <g id="Symbols" stroke="none" stroke-width="1" fill="none" fill-rule="evenodd">
        <g id="ic/navbar/fiter/normal">
            <g>
                <rect id="Rectangle" x="0" y="0" width="40" height="40"></rect>
                <g id="filter" transform="translate(7.000000, 7.000000)"></g>
            </g>
            <path d="M32.2656444,7.16755556 C32.1391111,7.04044444 31.9692444,6.99248889 31.804,7.00808889 L7.63497778,7.00808889 C7.46973333,6.99306667 7.30044444,7.04102222 7.17391111,7.16755556 C7.12191111,7.21955556 7.08435556,7.28022222 7.05662222,7.34435556 C7.02253333,7.41831111 7,7.4992 7,7.58586667 C7,7.75457778 7.07453333,7.90306667 7.19008889,8.00822222 L15.6666667,19.8752 L15.6666667,31.8132444 C15.6620444,31.9010667 15.6753333,31.9888889 15.7111556,32.0709333 C15.7972444,32.2812444 16.0029333,32.4297333 16.2444444,32.4297333 C16.4195111,32.4297333 16.5708889,32.3476889 16.6772,32.2252 L23.5989778,25.3190222 C23.7301333,25.1878667 23.7763556,25.0110667 23.7555556,24.8406222 L23.7555556,19.8780889 L32.2656444,7.98568889 C32.4921333,7.75977778 32.4921333,7.39346667 32.2656444,7.16755556 L32.2656444,7.16755556 Z M22.7640889,19.2997333 C22.6433333,19.4204889 22.5919111,19.5799556 22.6,19.7382667 L22.6,24.68 L16.8222222,30.4444889 L16.8222222,19.7382667 C16.8303111,19.5805333 16.7788889,19.4204889 16.6581333,19.2997333 L8.70386667,8.16364444 L30.7333778,8.16364444 L22.7640889,19.2997333 L22.7640889,19.2997333 Z" id="Shape" fill="#FFFFFF"></path>
        </g>
    </g>
</svg>