<?xml version="1.0" encoding="UTF-8"?>
<svg width="30px" height="23px" viewBox="0 0 30 23" version="1.1" xmlns="http://www.w3.org/2000/svg" xmlns:xlink="http://www.w3.org/1999/xlink">
    <!-- Generator: sketchtool 40.3 (33839) - http://www.bohemiancoding.com/sketch -->
    <title>14C4216B-FCFE-488D-B3DB-F83CEB8FEF00</title>
    <desc>Created with sketchtool.</desc>
    <defs></defs>
    <g id="components" stroke="none" stroke-width="1" fill="none" fill-rule="evenodd">
        <g id="icons" transform="translate(-129.000000, -311.000000)" fill="#FFFFFF">
            <g id="ic/event/normal" transform="translate(124.000000, 302.000000)">
                <path d="M34.3293319,9.30890212 C33.944181,9.01666299 33.4577802,8.92646734 32.9947845,9.06107603 L7.48534483,16.4835978 L6.51939655,16.4835978 C5.68159483,16.4835978 5,17.1711195 5,18.0162065 L5,22.1901195 C5,23.0352065 5.68159483,23.7227282 6.51939655,23.7227282 L7.48534483,23.7227282 L12.2413793,25.106576 L12.2413793,26.7711195 C12.2413793,28.1433586 13.1542457,29.3673586 14.4613147,29.7476412 L19.777069,31.2943369 C20.0137716,31.3632717 20.2539655,31.3971195 20.4920905,31.3970543 C21.0368103,31.3970543 21.5698276,31.2195978 22.0202155,30.8777934 C22.6675431,30.3865108 23.0387931,29.6362499 23.0387931,28.8191412 L23.0387931,28.2482934 L32.9947845,31.1451847 C33.1356034,31.1861412 33.278556,31.2063586 33.4202155,31.2063586 C33.7442672,31.2063586 34.0614009,31.1007717 34.3293966,30.8974239 C34.7145474,30.6051847 34.9354095,30.1587717 34.9354095,29.6727065 L34.9354095,10.5336195 C34.9353448,10.0475543 34.7144828,9.60114125 34.3293319,9.30890212 L34.3293319,9.30890212 Z M8.0387931,22.8656412 L8.0387931,17.3406847 L31.8965517,10.3988152 L31.8965517,29.8075108 L8.0387931,22.8656412 L8.0387931,22.8656412 Z M5.96982759,22.1901195 L5.96982759,18.0162065 C5.96982759,17.7105326 6.21635776,17.4618586 6.51939655,17.4618586 L7.06896552,17.4618586 L7.06896552,22.7444673 L6.51939655,22.7444673 C6.21635776,22.7444673 5.96982759,22.4957282 5.96982759,22.1901195 L5.96982759,22.1901195 Z M22.0689655,28.8191412 C22.0689655,29.3259456 21.8386638,29.7913369 21.4372198,30.0959673 C21.0357759,30.400663 20.5286853,30.4948369 20.0459052,30.3543586 L14.7301509,28.807663 C13.8357759,28.5474456 13.2112069,27.7099891 13.2112069,26.7711195 L13.2112069,25.3887717 L22.0689655,27.9660978 L22.0689655,28.8191412 L22.0689655,28.8191412 Z M33.9655172,29.6726412 C33.9655172,29.8484673 33.8856034,30.0099456 33.7463362,30.1155978 C33.6070043,30.2213152 33.4310776,30.2540543 33.2636207,30.2052717 L32.8663793,30.0897065 L32.8663793,10.1166195 L33.2636207,10.0010543 C33.4311422,9.95227168 33.6070043,9.98501081 33.7463362,10.0907282 C33.8856034,10.1963804 33.9655172,10.3578586 33.9655172,10.5336847 L33.9655172,29.6726412 L33.9655172,29.6726412 Z" id="Shape"></path>
            </g>
        </g>
    </g>
</svg>