<?xml version="1.0" encoding="UTF-8"?>
<svg width="30px" height="29px" viewBox="0 0 30 29" version="1.1" xmlns="http://www.w3.org/2000/svg" xmlns:xlink="http://www.w3.org/1999/xlink">
    <!-- Generator: sketchtool 40.3 (33839) - http://www.bohemiancoding.com/sketch -->
    <title>C1FEE344-211E-41E7-A5F7-4D319A3B716E</title>
    <desc>Created with sketchtool.</desc>
    <defs></defs>
    <g id="components" stroke="none" stroke-width="1" fill="none" fill-rule="evenodd">
        <g id="icons" transform="translate(-194.000000, -308.000000)" fill="#FFFFFF">
            <g id="ic/appointment/normal" transform="translate(189.000000, 302.000000)">
                <g id="event-on-day-10" transform="translate(5.000000, 6.000000)">
                    <g id="Capa_1">
                        <g id="Group">
                            <path d="M23.1818137,4.07352901 L23.1818137,1.38527596 C23.1818137,0.644103364 22.5695588,0.0438766455 21.8181863,0.0438766455 C21.0654902,0.0438766455 20.4545588,0.644103364 20.4545588,1.38527596 L20.4545588,4.07348074 C20.4545588,4.81465334 21.0668137,5.41488006 21.8181863,5.41488006 C22.5708824,5.41492833 23.1818137,4.81470161 23.1818137,4.07352901 Z M2.7272549,8.10043003 L27.2726961,8.10043003 L27.2726961,9.44318089 L2.7272549,9.44318089 L2.7272549,8.10043003 Z M8.5227451,5.41492833 C9.08730392,5.41492833 9.54544118,4.96645978 9.54544118,4.40518625 L9.54544118,1.05361872 C9.54544118,0.496399805 9.08862745,0.0438766455 8.5227451,0.0438766455 L7.84093137,0.0438766455 C7.27637255,0.0438766455 6.81818627,0.492345197 6.81818627,1.05361872 L6.81818627,4.40383471 C6.81818627,4.96240517 7.275,5.41492833 7.84093137,5.41492833 L8.5227451,5.41492833 Z M10.9090686,2.72937835 L19.0908824,2.72937835 L19.0908824,4.07212921 L10.9090686,4.07212921 L10.9090686,2.72937835 Z M12.2727451,24.2135851 L12.2727451,13.4714817 L11.175,13.4714817 C10.9786275,14.200587 10.6827451,14.6638259 10.2858824,14.8585436 C9.88769608,15.0546129 9.18681373,15.1942072 8.18181373,15.2774715 L8.18181373,16.1865241 L10.9431863,16.1865241 L10.9431863,24.2135851 L12.2727451,24.2135851 Z M0,26.8990385 C0,28.2417894 1.5,28.2417894 1.5,28.2417894 L28.6363725,28.2417894 C28.6363725,28.2417894 30,28.2417894 30,26.8990385 L30,2.72937835 L24.5454902,2.72937835 L24.5454902,4.07212921 L28.6363725,4.07212921 L28.6363725,26.8990385 L1.36362745,26.8990385 L1.36362745,4.07217747 L5.45455882,4.07217747 L5.45455882,2.72937835 L0,2.72937835 L0,26.8990385 Z M21.1251383,15.0884209 C20.7456929,14.3371469 20.9458309,14.7355735 21.1251383,15.0884209 Z M18.3818137,13.4714817 C16.9609314,13.4714817 15.9776961,14.2650263 15.435,15.8521638 C15.1445588,16.7034866 15,17.7239927 15,18.9123306 C15,20.4457445 15.2413725,21.6676294 15.7240686,22.5780336 C16.3035784,23.6683369 17.1872549,24.2135368 18.374951,24.2135368 C19.6908824,24.2135368 20.6386275,23.5461677 21.2181373,22.2128294 C21.6176961,21.2822969 21.8181373,20.1073779 21.8181373,18.6854174 C21.8181373,17.1855505 21.5972059,16.0052735 21.1553922,15.1431867 C20.5854412,14.0287006 19.6609314,13.4714817 18.3818137,13.4714817 Z M19.8872549,21.9979834 C19.5095588,22.5793852 19.0022549,22.870786 18.3641176,22.870786 C17.5718137,22.870786 17.0113725,22.39408 16.6841176,21.4420678 C16.470049,20.8190098 16.3636765,19.9932214 16.3636765,18.9660059 C16.3636765,17.6004237 16.5314216,16.567802 16.8654902,15.8669342 C17.2009314,15.1646665 17.730049,14.8141843 18.4527451,14.8141843 C19.2409314,14.8141843 19.7713725,15.1833949 20.0441176,15.921961 C20.3168137,16.6604788 20.4532353,17.6030785 20.4532353,18.7471053 C20.4545098,20.3329878 20.265,21.4165817 19.8872549,21.9979834 Z" id="Combined-Shape"></path>
                        </g>
                    </g>
                </g>
            </g>
        </g>
    </g>
</svg>