<?xml version="1.0" encoding="utf-8"?>
<!-- Generator: Adobe Illustrator 17.0.0, SVG Export Plug-In . SVG Version: 6.00 Build 0)  -->
<!DOCTYPE svg PUBLIC "-//W3C//DTD SVG 1.1//EN" "http://www.w3.org/Graphics/SVG/1.1/DTD/svg11.dtd">
<svg version="1.1" id="Capa_1" xmlns="http://www.w3.org/2000/svg" xmlns:xlink="http://www.w3.org/1999/xlink" x="0px" y="0px"
	 width="26px" height="26px" viewBox="947 527 26 26" enable-background="new 947 527 26 26" xml:space="preserve">
<g>
	<g>
		<circle cx="950.398" cy="530.459" r="2.178"/>
		<path d="M956.92,536.91c-0.15-0.493-0.647-0.749-1.165-0.621c-0.109,0.027-1.156,0.327-2.116-0.193
			c-0.834-0.452-1.374-1.323-1.565-1.621c-0.388-0.604-0.929-1.086-1.675-1.086c-1.013,0-1.834,0.821-1.834,1.834v5.764
			c0,0.645,0.333,1.212,0.836,1.539v8.197c0,0.551,0.447,0.998,0.998,0.998s0.998-0.447,0.998-0.998v-8.197
			c0.503-0.327,0.836-0.894,0.836-1.539v-3.575c0.162,0.117,0.335,0.226,0.517,0.325c0.747,0.405,1.527,0.518,2.164,0.518
			c0.777,0,1.343-0.168,1.385-0.181C956.792,537.924,957.07,537.403,956.92,536.91z"/>
	</g>
	<g>
		<circle cx="969.602" cy="530.459" r="2.178"/>
		<path d="M963.08,536.91c0.15-0.493,0.672-0.771,1.165-0.621c0.006,0.002,1.156,0.327,2.116-0.193
			c0.834-0.452,1.374-1.323,1.565-1.621c0.388-0.604,0.929-1.086,1.675-1.086c1.013,0,1.834,0.821,1.834,1.834v5.764
			c0,0.645-0.333,1.212-0.836,1.539v8.197c0,0.551-0.447,0.998-0.998,0.998c-0.551,0-0.998-0.447-0.998-0.998v-8.197
			c-0.503-0.327-0.836-0.894-0.836-1.539v-3.575c-0.162,0.117-0.335,0.226-0.517,0.325c-0.747,0.405-1.527,0.518-2.164,0.518
			c-0.777,0-1.343-0.168-1.385-0.181C963.208,537.924,962.93,537.403,963.08,536.91z"/>
	</g>
	<path d="M960.228,533.662h-1.765c-0.029,0-0.053,0.023-0.053,0.053v0.982c0,0.076-0.062,0.138-0.138,0.138h-0.868
		c-0.076,0-0.138-0.062-0.138-0.138v-0.982c0-0.029-0.023-0.053-0.053-0.053h-1.765c-0.391,0-0.71,0.318-0.71,0.71v1.187
		c0,0.025,0.017,0.046,0.041,0.051c0.092,0.021,0.204,0.031,0.343,0.031c0.251,0,0.532-0.034,0.758-0.062
		c0.05-0.006,0.27-0.025,0.327-0.027c0.639-0.014,1.198,0.449,1.41,1.143c0.267,0.877-0.229,1.808-1.106,2.075
		c-0.071,0.022-0.722,0.212-1.598,0.212c-0.034,0-0.091-0.001-0.121-0.002c-0.014,0-0.028,0.005-0.038,0.015
		c-0.01,0.01-0.016,0.023-0.016,0.038v0.505c0,0.391,0.318,0.71,0.71,0.71h4.779c0.391,0,0.71-0.318,0.71-0.71v-5.168
		C960.938,533.981,960.62,533.662,960.228,533.662z"/>
</g>
</svg>
