<?xml version="1.0" encoding="utf-8"?>
<!-- Generator: Adobe Illustrator 17.0.0, SVG Export Plug-In . SVG Version: 6.00 Build 0)  -->
<!DOCTYPE svg PUBLIC "-//W3C//DTD SVG 1.1//EN" "http://www.w3.org/Graphics/SVG/1.1/DTD/svg11.dtd">
<svg version="1.1" id="Capa_1" xmlns="http://www.w3.org/2000/svg" xmlns:xlink="http://www.w3.org/1999/xlink" x="0px" y="0px"
	 width="26px" height="26px" viewBox="947 527 26 26" enable-background="new 947 527 26 26" xml:space="preserve">
<g>
	<path d="M960,552.033c-6.635,0-12.034-5.398-12.034-12.033c0-6.635,5.398-12.034,12.034-12.034c6.635,0,12.033,5.398,12.033,12.034
		C972.033,546.635,966.635,552.033,960,552.033z M960,529.156c-5.979,0-10.844,4.865-10.844,10.844s4.865,10.845,10.844,10.845
		s10.845-4.865,10.845-10.845S965.979,529.156,960,529.156z"/>
	<path d="M960,528.167c-6.525,0-11.833,5.308-11.833,11.833s5.308,11.833,11.833,11.833s11.833-5.308,11.833-11.833
		S966.525,528.167,960,528.167z M960,551.044c-6.09,0-11.044-4.955-11.044-11.044s4.955-11.044,11.044-11.044
		s11.044,4.955,11.044,11.044S966.09,551.044,960,551.044z"/>
	<path d="M953.689,540.989c-0.328,0-0.595-0.267-0.595-0.595c0-0.328,0.267-0.595,0.595-0.595h5.716v-8.872
		c0-0.328,0.267-0.595,0.595-0.595s0.595,0.267,0.595,0.595v9.467c0,0.328-0.267,0.595-0.595,0.595H953.689z"/>
	<path d="M960,530.533c-0.218,0-0.394,0.176-0.394,0.394V540h-5.917c-0.218,0-0.394,0.176-0.394,0.394
		c0,0.218,0.177,0.394,0.394,0.394H960c0.218,0,0.394-0.176,0.394-0.394v-9.467C960.394,530.71,960.218,530.533,960,530.533z"/>
</g>
</svg>
