<?xml version="1.0" encoding="utf-8"?>
<!-- Generator: Adobe Illustrator 17.0.0, SVG Export Plug-In . SVG Version: 6.00 Build 0)  -->
<!DOCTYPE svg PUBLIC "-//W3C//DTD SVG 1.1//EN" "http://www.w3.org/Graphics/SVG/1.1/DTD/svg11.dtd">
<svg version="1.1" id="Capa_1" xmlns="http://www.w3.org/2000/svg" xmlns:xlink="http://www.w3.org/1999/xlink" x="0px" y="0px"
	 width="26px" height="26px" viewBox="947 527 26 26" enable-background="new 947 527 26 26" xml:space="preserve">
<g>
	<g>
		<path d="M968.594,539.963c0-2.232-0.708-3.892-2.367-5.55c-0.448-0.447-1.172-0.447-1.62,0
			c-0.448,0.448-0.448,1.173,0,1.621c1.236,1.235,1.696,2.3,1.696,3.929c0,1.683-0.655,3.266-1.846,4.455
			c-1.15,1.149-2.381,1.721-3.928,1.825l1.428-1.429c0.448-0.448,0.448-1.172,0-1.62c-0.448-0.448-1.172-0.448-1.62,0l-4.247,4.247
			l4.247,4.247c0.223,0.223,0.517,0.336,0.81,0.336c0.293,0,0.587-0.112,0.81-0.336c0.448-0.448,0.448-1.172,0-1.62l-1.532-1.531
			c2.203-0.094,4.058-0.907,5.652-2.499C967.7,544.417,968.594,542.259,968.594,539.963z"/>
		<path d="M953.698,539.994c0-1.683,0.655-3.266,1.846-4.456c1.156-1.156,2.397-1.728,3.961-1.826l-1.461,1.461
			c-0.448,0.448-0.448,1.172,0,1.62c0.223,0.225,0.517,0.337,0.81,0.337s0.587-0.112,0.81-0.336l4.247-4.247l-4.247-4.247
			c-0.448-0.448-1.172-0.448-1.62,0c-0.448,0.448-0.448,1.172,0,1.62l1.502,1.502c-2.193,0.099-4.039,0.912-5.622,2.497
			c-1.624,1.622-2.517,3.78-2.517,6.076c0,2.232,0.708,3.892,2.367,5.55c0.223,0.223,0.517,0.335,0.81,0.335s0.587-0.112,0.81-0.336
			c0.448-0.448,0.448-1.173,0-1.621C954.158,542.688,953.698,541.623,953.698,539.994z"/>
	</g>
</g>
</svg>
