<?xml version="1.0" encoding="utf-8"?>
<!-- Generator: Adobe Illustrator 17.0.0, SVG Export Plug-In . SVG Version: 6.00 Build 0)  -->
<!DOCTYPE svg PUBLIC "-//W3C//DTD SVG 1.1//EN" "http://www.w3.org/Graphics/SVG/1.1/DTD/svg11.dtd">
<svg version="1.1" id="Capa_1" xmlns="http://www.w3.org/2000/svg" xmlns:xlink="http://www.w3.org/1999/xlink" x="0px" y="0px"
	 width="26px" height="26px" viewBox="947 527 26 26" enable-background="new 947 527 26 26" xml:space="preserve">
<g>
	<path d="M971.338,548.676h-15.729c-3.261,0-5.946-2.685-5.946-5.946c0-3.266,2.685-5.946,5.946-5.946h2.199l-4.09,3.529
		c-0.42,0.369-0.475,1.052-0.106,1.476c0.516,0.617,1.315,0.278,1.471,0.106l6.209-5.37c0.42-0.394,0.485-1.128,0-1.577l-6.209-5.38
		c-0.475-0.369-1.102-0.313-1.471,0.106c-0.369,0.475-0.313,1.107,0.106,1.476l4.09,3.529h-2.199
		c-4.419-0.005-7.994,3.575-7.994,7.994s3.575,8.004,7.994,8.004h15.674c0.576,0,1.102-0.369,1.102-0.945
		C972.385,549.156,971.915,548.676,971.338,548.676z"/>
</g>
</svg>
