<?xml version="1.0" encoding="UTF-8"?>
<svg width="23px" height="23px" viewBox="0 0 23 23" version="1.1" xmlns="http://www.w3.org/2000/svg" xmlns:xlink="http://www.w3.org/1999/xlink">
    <!-- Generator: sketchtool 40.3 (33839) - http://www.bohemiancoding.com/sketch -->
    <title>E4A19B8C-AF36-4842-8B24-4A15E6DD9048</title>
    <desc>Created with sketchtool.</desc>
    <defs></defs>
    <g id="home" stroke="none" stroke-width="1" fill="none" fill-rule="evenodd">
        <g id="home-color-v3" transform="translate(-17.000000, -42.000000)" fill="#ffffff">
            <g id="magnifying-glass" transform="translate(17.000000, 42.000000)">
                <g id="Capa_1">
                    <path d="M22.7985588,21.827051 L17.2092018,16.237694 C18.7085366,14.513969 19.6162971,12.2649667 19.6162971,9.80687361 C19.6162971,4.39600887 15.2151885,0 9.8094235,0 C4.39855876,0 0.00254988914,4.40110865 0.00254988914,9.80687361 C0.00254988914,15.2126386 4.40365854,19.6137472 9.8094235,19.6137472 C12.2675166,19.6137472 14.5165188,18.7059867 16.2402439,17.2066519 L21.8296009,22.7960089 C21.9621951,22.9286031 22.1406874,23 22.3140798,23 C22.4874723,23 22.6659645,22.9337029 22.7985588,22.7960089 C23.0637472,22.5308204 23.0637472,22.0922395 22.7985588,21.827051 L22.7985588,21.827051 Z M1.37439024,9.80687361 C1.37439024,5.15587583 5.15842572,1.37694013 9.80432373,1.37694013 C14.4553215,1.37694013 18.2342572,5.16097561 18.2342572,9.80687361 C18.2342572,14.4527716 14.4553215,18.2419069 9.80432373,18.2419069 C5.15842572,18.2419069 1.37439024,14.4578714 1.37439024,9.80687361 L1.37439024,9.80687361 Z" id="Shape"></path>
                </g>
            </g>
        </g>
    </g>
</svg>
