<?xml version="1.0" encoding="utf-8"?>
<!-- Generator: Adobe Illustrator 17.0.0, SVG Export Plug-In . SVG Version: 6.00 Build 0)  -->
<!DOCTYPE svg PUBLIC "-//W3C//DTD SVG 1.1//EN" "http://www.w3.org/Graphics/SVG/1.1/DTD/svg11.dtd">
<svg version="1.1" id="Capa_1" xmlns="http://www.w3.org/2000/svg" xmlns:xlink="http://www.w3.org/1999/xlink" x="0px" y="0px"
	 width="26px" height="26px" viewBox="947 527 26 26" enable-background="new 947 527 26 26" xml:space="preserve">
<g>
	<path d="M970.76,533.818c0-0.089-0.02-0.178-0.059-0.262c-0.079-0.168-0.232-0.281-0.4-0.316l-10.059-4.879
		c-0.163-0.079-0.356-0.079-0.518,0l-10.158,4.923c-0.198,0.094-0.326,0.291-0.336,0.514v0.005c0,0.005,0,0.01,0,0.02v12.355
		c0,0.227,0.128,0.435,0.336,0.533l10.158,4.923c0.005,0,0.005,0,0.01,0.005c0.015,0.005,0.03,0.01,0.044,0.02
		c0.005,0,0.01,0.005,0.02,0.005c0.015,0.005,0.03,0.01,0.044,0.015c0.005,0,0.01,0.005,0.015,0.005
		c0.015,0.005,0.035,0.005,0.049,0.01c0.005,0,0.01,0,0.015,0c0.02,0,0.044,0.005,0.064,0.005s0.044,0,0.064-0.005
		c0.005,0,0.01,0,0.015,0c0.015,0,0.035-0.005,0.049-0.01c0.005,0,0.01-0.005,0.015-0.005c0.015-0.005,0.03-0.01,0.044-0.015
		c0.005,0,0.01-0.005,0.02-0.005c0.015-0.005,0.03-0.01,0.044-0.02c0.005,0,0.005,0,0.01-0.005l10.187-4.938
		c0.203-0.099,0.336-0.306,0.336-0.533v-12.331C970.76,533.827,970.76,533.822,970.76,533.818z M959.98,529.551l8.81,4.271
		l-3.244,1.575l-8.81-4.271L959.98,529.551z M959.98,538.094l-8.81-4.271l4.207-2.039l8.81,4.271L959.98,538.094z M950.415,534.776
		l8.973,4.35v11.027l-8.973-4.35V534.776z M960.573,550.153v-11.027l4.212-2.044v2.884c0,0.326,0.267,0.593,0.593,0.593
		c0.326,0,0.593-0.267,0.593-0.593v-3.462l3.605-1.748v11.027L960.573,550.153z"/>
</g>
</svg>
