<?xml version="1.0" encoding="UTF-8"?>
<svg width="19px" height="26px" viewBox="0 0 19 26" version="1.1" xmlns="http://www.w3.org/2000/svg" xmlns:xlink="http://www.w3.org/1999/xlink">
    <!-- Generator: sketchtool 40.3 (33839) - http://www.bohemiancoding.com/sketch -->
    <title>6A509EFC-96F0-4D94-ACA3-9DF0FE04F384</title>
    <desc>Created with sketchtool.</desc>
    <defs></defs>
    <g id="home" stroke="none" stroke-width="1" fill="none" fill-rule="evenodd">
        <g id="store-profile" transform="translate(-367.000000, -99.000000)" stroke="#FFFFFF" fill="#FFFFFF">
            <g id="ic/store/map/normal" transform="translate(359.000000, 95.000000)">
                <g id="placeholder" transform="translate(9.000000, 5.000000)">
                    <g id="Capa_1">
                        <g id="Group">
                            <path d="M8.77557692,5.45454545 C7.04397436,5.45454545 5.63455128,6.88227273 5.63455128,8.63636364 C5.63455128,10.3904545 7.04397436,11.8181818 8.77557692,11.8181818 C10.5071795,11.8181818 11.9166026,10.3904545 11.9166026,8.63636364 C11.9166026,6.88227273 10.5071795,5.45454545 8.77557692,5.45454545 L8.77557692,5.45454545 Z M8.77557692,10.9090909 C7.53846154,10.9090909 6.53198718,9.88954545 6.53198718,8.63636364 C6.53198718,7.38318182 7.53846154,6.36363636 8.77557692,6.36363636 C10.0126923,6.36363636 11.0191667,7.38318182 11.0191667,8.63636364 C11.0191667,9.88954545 10.0126923,10.9090909 8.77557692,10.9090909 L8.77557692,10.9090909 Z" id="Shape"></path>
                            <path d="M14.7807692,2.55318182 C13.1555128,0.906818182 10.9944872,0 8.69615385,0 C6.39737179,0 4.23679487,0.906818182 2.61153846,2.55318182 C-0.396217949,5.59954545 -0.77,11.3313636 1.80205128,14.8040909 L8.69615385,24.8895455 L15.5799359,14.8181818 C18.1623077,11.3313636 17.7885256,5.59954545 14.7807692,2.55318182 L14.7807692,2.55318182 Z M14.8521154,14.2868182 L8.69615385,23.2922727 L2.53032051,14.2727273 C0.197435897,11.1218182 0.531730769,5.94545455 3.24647436,3.19590909 C4.70211538,1.72136364 6.6374359,0.909090909 8.69615385,0.909090909 C10.7548718,0.909090909 12.6901923,1.72136364 14.1462821,3.19590909 C16.8610256,5.94545455 17.1953205,11.1218182 14.8521154,14.2868182 L14.8521154,14.2868182 Z" id="Shape"></path>
                        </g>
                    </g>
                </g>
            </g>
        </g>
    </g>
</svg>