<?xml version="1.0" encoding="UTF-8"?>
<svg width="27px" height="25px" viewBox="0 0 27 25" version="1.1" xmlns="http://www.w3.org/2000/svg" xmlns:xlink="http://www.w3.org/1999/xlink">
    <!-- Generator: sketchtool 40.3 (33839) - http://www.bohemiancoding.com/sketch -->
    <title>4324DBF1-CE75-4749-9025-579FA6FA11BE</title>
    <desc>Created with sketchtool.</desc>
    <defs></defs>
    <g id="home" stroke="none" stroke-width="1" fill="none" fill-rule="evenodd">
        <g id="store-profile" transform="translate(-323.000000, -100.000000)" stroke="#FFFFFF" fill="#FFFFFF">
            <g id="ic/store/AddLike/normal" transform="translate(319.000000, 95.000000)">
                <g id="Capa_1" transform="translate(5.000000, 6.000000)">
                    <path d="M24.9586772,6.93120785 C24.5937502,2.91460752 21.7507819,0.000480799657 18.1928644,0.000480799657 C15.8225221,0.000480799657 13.6521924,1.27604229 12.4309613,3.32040243 C11.2207886,1.24959831 9.13940686,0 6.80704773,0 C3.24961107,0 0.406161901,2.91412672 0.0417157611,6.93072705 C0.0128677817,7.10814212 -0.105408934,8.04185506 0.254229209,9.56454757 C0.772531239,11.7608404 1.96972238,13.758563 3.71550594,15.3403938 L12.4251917,23.2442594 L21.2844062,15.3408746 C23.0301897,13.758563 24.2273809,11.7613212 24.7456829,9.56454757 C25.1053211,8.04233586 24.9870443,7.10862292 24.9586772,6.93120785 L24.9586772,6.93120785 Z M23.809566,9.34434133 C23.3364591,11.3502375 22.2397551,13.177757 20.6410962,14.6259256 L12.4309613,21.9509083 L4.36170068,14.6278488 C2.76015702,13.1767954 1.6639338,11.3497567 1.19034614,9.34386053 C0.849939984,7.90290396 0.989852684,7.08891014 0.990333484,7.08362134 L0.997545478,7.03506058 C1.31006526,3.51608789 3.75300831,0.961599313 6.80704773,0.961599313 C9.06055572,0.961599313 11.0443351,2.34630232 11.9857408,4.57480873 L12.4285573,5.62439438 L12.8713738,4.57480873 C13.7978747,2.3804391 15.8864684,0.962080113 18.1933452,0.962080113 C21.2469038,0.962080113 23.6903277,3.51656869 24.0090978,7.08121734 C24.0100594,7.08891014 24.1499721,7.90338476 23.809566,9.34434133 L23.809566,9.34434133 Z" id="Shape"></path>
                </g>
            </g>
        </g>
    </g>
</svg>