<?xml version="1.0" encoding="UTF-8"?>
<svg width="23px" height="23px" viewBox="0 0 23 23" version="1.1" xmlns="http://www.w3.org/2000/svg" xmlns:xlink="http://www.w3.org/1999/xlink">
    <!-- Generator: sketchtool 40.3 (33839) - http://www.bohemiancoding.com/sketch -->
    <title>82F48413-1927-49AF-9FD7-F918D4E3103A</title>
    <desc>Created with sketchtool.</desc>
    <defs></defs>
    <g id="home" stroke="none" stroke-width="1" fill="none" fill-rule="evenodd">
        <g id="home-color-both-names" transform="translate(-277.000000, -42.000000)" fill="#ffffff">
            <g id="ic/navbar/search/normal" transform="translate(268.000000, 33.000000)">
                <path d="M31.7960089,30.827051 L26.2066519,25.237694 C27.7059867,23.513969 28.6137472,21.2649667 28.6137472,18.8068736 C28.6137472,13.3960089 24.2126386,9 18.8068736,9 C13.3960089,9 9,13.4011086 9,18.8068736 C9,24.2126386 13.4011086,28.6137472 18.8068736,28.6137472 C21.2649667,28.6137472 23.513969,27.7059867 25.237694,26.2066519 L30.827051,31.7960089 C30.9596452,31.9286031 31.1381375,32 31.3115299,32 C31.4849224,32 31.6634146,31.9337029 31.7960089,31.7960089 C32.0611973,31.5308204 32.0611973,31.0922395 31.7960089,30.827051 L31.7960089,30.827051 Z M10.3718404,18.8068736 C10.3718404,14.1558758 14.1558758,10.3769401 18.8017738,10.3769401 C23.4527716,10.3769401 27.2317073,14.1609756 27.2317073,18.8068736 C27.2317073,23.4527716 23.4527716,27.2419069 18.8017738,27.2419069 C14.1558758,27.2419069 10.3718404,23.4578714 10.3718404,18.8068736 L10.3718404,18.8068736 Z" id="Shape"></path>
            </g>
        </g>
    </g>
</svg>
