<?xml version="1.0" encoding="UTF-8"?>
<svg width="20px" height="20px" viewBox="0 0 20 20" version="1.1" xmlns="http://www.w3.org/2000/svg" xmlns:xlink="http://www.w3.org/1999/xlink">
    <!-- Generator: sketchtool 40.3 (33839) - http://www.bohemiancoding.com/sketch -->
    <title>5636A3D3-BA26-4E30-A7A6-6710CB031113</title>
    <desc>Created with sketchtool.</desc>
    <defs></defs>
    <g id="home" stroke="none" stroke-width="1" fill="none" fill-rule="evenodd">
        <g id="home-search" transform="translate(-286.000000, -45.000000)" fill="#FFFFFF">
            <g id="ic/close/search" transform="translate(286.000000, 45.000000)">
                <circle id="Oval-2" fill-opacity="0.5" cx="10" cy="10" r="10"></circle>
                <g id="cancel" stroke-width="1" transform="translate(6.000000, 6.000000)">
                    <path d="M0.0395451802,7.24340299 C-0.154830091,7.43478787 -0.154830091,7.74659716 0.0395451802,7.93798205 C0.132829634,8.03006535 0.257748213,8.07989806 0.386676704,8.07989806 C0.515695677,8.07989806 0.640506062,8.03008284 0.734034418,7.93775905 L4.17577386,4.54896973 L3.82497174,4.54896973 L7.26693737,7.93798205 C7.36051928,8.03012424 7.48522594,8.07989806 7.61406889,8.07989806 C7.74299738,8.07989806 7.86791596,8.03006535 7.96142661,7.93775905 C8.15557569,7.74659716 8.15557569,7.43478787 7.96120042,7.24340299 L4.54504573,3.87968579 L4.54504887,4.23595992 L7.96349805,0.869864786 C8.15786704,0.67848609 8.15786704,0.366676798 7.96349176,0.175291915 C7.77116879,-0.0138316957 7.46130738,-0.0138316957 7.26922872,0.175291915 L3.8250861,3.56668521 L4.17588822,3.56667293 L0.731390046,0.175404516 C0.539092203,-0.0136943777 0.229437315,-0.0136943777 0.0372465059,0.1752992 C-0.157242036,0.36679554 -0.157242036,0.678604832 0.0371332356,0.869989715 L3.45582675,4.2359692 L3.4558236,3.8796827 L0.0395451802,7.24340299 Z" id="Shape"></path>
                </g>
            </g>
        </g>
    </g>
</svg>