<?xml version="1.0" encoding="UTF-8" standalone="no"?>
<svg width="26px" height="24px" viewBox="0 0 26 24" version="1.1" xmlns="http://www.w3.org/2000/svg" xmlns:xlink="http://www.w3.org/1999/xlink">
    <!-- Generator: sketchtool 39.1 (31720) - http://www.bohemiancoding.com/sketch -->
    <title>BE56C554-03AD-448A-939E-BF739226BD0E</title>
    <desc>Created with sketchtool.</desc>
    <defs></defs>
    <g id="components" stroke="none" stroke-width="1" fill="none" fill-rule="evenodd">
        <g id="icons" transform="translate(-362.000000, -635.000000)" fill="#ea6069">
            <g id="ic/Menu/Showrooms/active" transform="translate(355.000000, 627.000000)">
                <g id="Group" transform="translate(7.000000, 8.000000)">
                    <path d="M3.2648686,23.4399908 C3.2648686,23.7161332 3.48872623,23.9399908 3.7648686,23.9399908 L22.8255224,23.9399908 C23.1016647,23.9399908 23.3255224,23.7161332 23.3255224,23.4399908 L23.3255228,6.68940628 C23.3255228,6.41326391 23.1016652,6.18940628 22.8255228,6.18940627 C22.5493804,6.18940626 22.3255228,6.41326387 22.3255228,6.68940625 L22.3255224,23.4399908 L22.8255224,22.9399908 L3.7648686,22.9399908 L4.2648686,23.4399908 L4.2648686,6.68940627 C4.2648686,6.41326389 4.04101098,6.18940627 3.7648686,6.18940627 C3.48872623,6.18940627 3.2648686,6.41326389 3.2648686,6.68940627 L3.2648686,23.4399908 Z" id="Path-7"></path>
                    <path d="M3.61004568,0.377745333 L0.640272987,8.24562428 C0.601740459,8.3714425 0.564668312,8.5234396 0.528387506,8.72360832 C0.41353489,9.35727398 0.349103973,9.84365172 0.516919944,10.6556186 C0.684735916,11.4675854 1.35231923,12.5100526 2.64506216,12.8098707 C3.9378051,13.1096887 5.53990347,12.7719851 6.38179004,11.4580403 C6.51267857,11.2537606 6.55615244,10.9797792 6.55615244,10.9797792 C6.55615244,10.9797792 7.18521542,13.0728021 9.71487811,13.0555293 C12.2445408,13.0382566 13.0849169,11.0629632 13.0849169,11.0629632 C13.0849169,11.0629632 14.2716385,13.0382566 16.5069901,13.0382566 C18.7423416,13.0382566 19.5276357,10.9797791 19.5276357,10.9797791 C19.5276357,10.9797791 19.7111823,11.309624 19.8160034,11.4688384 C20.6911361,12.798091 22.4182541,13.3095064 23.8747017,12.8098707 C25.3311493,12.310235 25.5893477,11.319406 25.657393,10.6396224 C25.7254383,9.95983881 25.632013,9.46135818 25.4603849,8.87235984 C25.3802033,8.59719018 25.298977,8.38435545 25.2412296,8.25647486 L22.1067777,0.369620488 C22.0311105,0.179262174 21.8469856,0.0543136048 21.6421397,0.0543136048 L4.07783158,0.0543136048 C3.86980275,0.0543136048 3.68350827,0.183119426 3.61004568,0.377745333 Z" id="Path-8"></path>
                </g>
            </g>
        </g>
    </g>
</svg>
