<?xml version="1.0" encoding="UTF-8" standalone="no"?>
<svg width="23px" height="26px" viewBox="0 0 23 26" version="1.1" xmlns="http://www.w3.org/2000/svg" xmlns:xlink="http://www.w3.org/1999/xlink">
    <!-- Generator: sketchtool 39.1 (31720) - http://www.bohemiancoding.com/sketch -->
    <title>D149C95D-9346-43E5-BB7F-AD38DD7601E0</title>
    <desc>Created with sketchtool.</desc>
    <defs></defs>
    <g id="components" stroke="none" stroke-width="1" fill="none" fill-rule="evenodd">
        <g id="icons" transform="translate(-228.000000, -634.000000)">
            <g id="ic/Menu/home/normal" transform="translate(219.000000, 627.000000)">
                <rect id="Rectangle" x="0" y="0" width="40" height="40"></rect>
                <path d="M23.23,30.3103195 C23.231154,30.2947757 23.2317412,30.279075 23.2317412,30.2632379 L23.2317412,24.6850847 C23.2317412,24.337754 22.9492803,24.0560524 22.6010135,24.0560524 L17.6603127,24.0560524 C17.3120458,24.0560524 17.0295849,24.337754 17.0295849,24.6850847 L17.0295849,31.7199718 L10.2614555,31.7199718 L10.2614555,17.2632379 C10.2614555,17.2437607 10.2574887,17.2253753 10.25,17.2080819 L10.25,16.3199441 C10.2629062,16.3177909 10.2721952,16.3146975 10.2773414,16.3105845 C13.561817,13.6854878 20.1307682,8.43529435 20.1307682,8.43529435 L29.9999757,16.323254 L29.9999757,31.7199718 L23.23,31.7199718 L23.23,30.3103195 Z M9,18.1866189 L9,32.3488992 C9,32.6962298 9.2823558,32.9779315 9.63072776,32.9779315 L30.6307035,32.9779315 C30.9790755,32.9779315 31.2614313,32.6962298 31.2614313,32.3488992 L31.2614313,16.0212137 C31.2614313,15.8301976 31.174496,15.6497702 31.0251186,15.5303589 L20.5251833,7.13822984 C20.2947574,6.95392339 19.966779,6.95392339 19.7363531,7.13822984 L9.23641779,15.5303589 C9.08703276,15.6497876 9.00653297,15.8231 9.00046571,16 L9,16 L9,18.1866189 Z" id="Combined-Shape" fill="#9b9b9b" fill-rule="evenodd"></path>
            </g>
        </g>
    </g>
</svg>
