<?xml version="1.0" encoding="UTF-8" standalone="no"?>
<svg width="26px" height="26px" viewBox="0 0 26 26" version="1.1" xmlns="http://www.w3.org/2000/svg" xmlns:xlink="http://www.w3.org/1999/xlink">
    <!-- Generator: sketchtool 39.1 (31720) - http://www.bohemiancoding.com/sketch -->
    <title>DC76706B-BAD5-4432-890F-3CA6261DED60</title>
    <desc>Created with sketchtool.</desc>
    <defs></defs>
    <g id="components" stroke="none" stroke-width="1" fill="none" fill-rule="evenodd">
        <g id="icons" transform="translate(-91.000000, -634.000000)" fill="#ea6069">
            <g id="ic/Menu/profile/active" transform="translate(84.000000, 627.000000)">
                <g id="Group" transform="translate(7.000000, 7.000000)">
                    <path d="M26,13 C26,5.83203636 20.1679636,0 13,0 C5.83203636,0 0,5.83203636 0,13 C0,16.7860727 1.62807273,20.1986909 4.21956364,22.5765091 L4.20727273,22.5873818 L4.62894545,22.9428727 C4.65636364,22.9660364 4.68614545,22.9849455 4.71356364,23.0076364 C4.93763636,23.1934182 5.16974545,23.3697455 5.40610909,23.5404 C5.48269091,23.5957091 5.55927273,23.6510182 5.63727273,23.7049091 C5.88970909,23.8788727 6.14876364,24.0438545 6.41349091,24.2003273 C6.47116364,24.2343636 6.52930909,24.2674545 6.58745455,24.3005455 C6.87723636,24.4655273 7.17316364,24.6210545 7.47618182,24.7638182 C7.4984,24.7742182 7.52109091,24.7836727 7.54330909,24.7940727 C8.53083636,25.2530909 9.58501818,25.5901455 10.6874182,25.7891636 C10.7162545,25.7943636 10.7450909,25.7995636 10.7744,25.8047636 C11.1166545,25.8638545 11.4626909,25.9111273 11.8129818,25.9428 C11.8555273,25.9465818 11.8980727,25.9489455 11.9410909,25.9527273 C12.2899636,25.9815636 12.6426182,26 13,26 C13.3540727,26 13.7034182,25.9815636 14.0504,25.9536727 C14.0943636,25.9498909 14.1383273,25.9475273 14.1822909,25.9437455 C14.5297455,25.9120727 14.8729455,25.8662182 15.2118909,25.8080727 C15.2412,25.8028727 15.2709818,25.7976727 15.3002909,25.792 C16.3861455,25.5972364 17.4252,25.2677455 18.3999636,24.8205455 C18.4358909,24.804 18.4722909,24.7884 18.5082182,24.7713818 C18.7998909,24.6342909 19.0849455,24.4863273 19.3643273,24.3289091 C19.4338182,24.2896727 19.5028364,24.2499636 19.5718545,24.2093091 C19.8261818,24.0594545 20.0762545,23.9029818 20.3192364,23.7365818 C20.4066909,23.6770182 20.4922545,23.6141455 20.5787636,23.5517455 C20.7862909,23.4023636 20.9900364,23.2482545 21.1881091,23.0870545 C21.2320727,23.0516 21.2793455,23.0208727 21.3223636,22.9844727 L21.7549091,22.6233091 L21.7421455,22.6124364 C24.3563273,20.2336727 26,16.8054545 26,13 L26,13 Z M20.0715273,22.7533091 C19.9060727,22.8733818 19.7377818,22.9896727 19.5671273,23.1007636 C19.4886545,23.1518182 19.4106545,23.2028727 19.3307636,23.2525091 C19.1076364,23.3905455 18.8807273,23.5219636 18.6490909,23.6448727 C18.5980364,23.6718182 18.5465091,23.6973455 18.4949818,23.7238182 C17.9626909,23.9965818 17.4119636,24.2310545 16.8461091,24.4215636 C16.8262545,24.4281818 16.8064,24.4352727 16.7860727,24.4418909 C16.4896727,24.5402182 16.1894909,24.6276727 15.886,24.7028364 C15.8850545,24.7028364 15.8841091,24.7033091 15.8831636,24.7033091 C15.5768364,24.7789455 15.2667273,24.8418182 14.9547273,24.8933455 C14.9462182,24.8947636 14.9377091,24.8966545 14.9292,24.8980727 C14.6356364,24.9458182 14.3397091,24.9803273 14.0428364,25.0063273 C13.9903636,25.0110545 13.9378909,25.0143636 13.8849455,25.0181455 C13.5913818,25.0403636 13.2964,25.0545455 13,25.0545455 C12.7002909,25.0545455 12.4015273,25.0398909 12.1041818,25.0176727 C12.0526545,25.0138909 12.0011273,25.0105818 11.9500727,25.0058545 C11.6503636,24.9793818 11.3520727,24.9439273 11.0566182,24.8957091 C11.0433818,24.8933455 11.0301455,24.8909818 11.0169091,24.8886182 C10.3919636,24.7841455 9.77694545,24.6305091 9.178,24.4296 C9.15956364,24.4234545 9.14065455,24.4168364 9.12221818,24.4106909 C8.82487273,24.3095273 8.53083636,24.1974909 8.242,24.0736364 C8.24010909,24.0726909 8.23774545,24.0717455 8.23585455,24.0708 C7.96261818,23.9530909 7.69458182,23.8226182 7.42985455,23.6850545 C7.39534545,23.6670909 7.36036364,23.6500727 7.32632727,23.6316364 C7.08476364,23.5025818 6.8484,23.3631273 6.61534545,23.2175273 C6.54632727,23.1740364 6.47778182,23.1300727 6.40970909,23.0856364 C6.19509091,22.9452364 5.98330909,22.7991636 5.7772,22.6445818 C5.75592727,22.6285091 5.7356,22.6114909 5.71432727,22.5954182 C5.72945455,22.5869091 5.74458182,22.5784 5.75970909,22.5698909 L9.49756364,20.5310182 C10.1404727,20.1802545 10.5399273,19.5075636 10.5399273,18.7753091 L10.5394545,17.0725455 L10.4307273,16.9411273 C10.4203273,16.9293091 9.39829091,15.6860364 9.01207273,14.0026545 L8.96905455,13.8154545 L8.80785455,13.7109818 C8.58047273,13.5639636 8.44432727,13.3181455 8.44432727,13.0529455 L8.44432727,11.3771273 C8.44432727,11.1573091 8.53745455,10.9526182 8.70763636,10.7989818 L8.86363636,10.6581091 L8.86363636,8.02501818 L8.85938182,7.96309091 C8.85796364,7.95174545 8.71850909,6.81483636 9.51930909,5.902 C10.2028727,5.12294545 11.3742909,4.72727273 13,4.72727273 C14.6195636,4.72727273 15.7872,5.11963636 16.4726545,5.89301818 C17.2725091,6.7964 17.1415636,7.95458182 17.1406182,7.96403636 L17.1363636,10.6590545 L17.2923636,10.7999273 C17.4620727,10.9530909 17.5556727,11.1582545 17.5556727,11.3780727 L17.5556727,13.0538909 C17.5556727,13.3909455 17.3264,13.6968 16.9973818,13.7984364 L16.7624364,13.8707636 L16.6868,14.1047636 C16.4078909,14.9712727 16.0108,15.7716 15.5068727,16.4835273 C15.3830182,16.6584364 15.2624727,16.8134909 15.1589455,16.9321455 L15.0417091,17.0659273 L15.0417091,18.8145455 C15.0417091,19.5765818 15.4652727,20.2620364 16.1469455,20.6024 L20.1495273,22.6034545 C20.1750545,22.6162182 20.2001091,22.6294545 20.2251636,22.6426909 C20.1745818,22.6809818 20.1225818,22.7164364 20.0715273,22.7533091 L20.0715273,22.7533091 Z" id="Shape"></path>
                </g>
            </g>
        </g>
    </g>
</svg>
