<?xml version="1.0" encoding="UTF-8"?>
<svg width="116px" height="116px" viewBox="0 0 116 116" version="1.1" xmlns="http://www.w3.org/2000/svg" xmlns:xlink="http://www.w3.org/1999/xlink">
    <!-- Generator: sketchtool 41.1 (35376) - http://www.bohemiancoding.com/sketch -->
    <title>33941107-3FD8-426B-BB44-C18DEAD93B2B</title>
    <desc>Created with sketchtool.</desc>
    <defs></defs>
    <g id="home" stroke="none" stroke-width="1" fill="none" fill-rule="evenodd">
        <g id="my-points" transform="translate(-369.000000, -390.000000)" fill="#F37474">
            <g id="ticket" transform="translate(369.000000, 390.000000)">
                <g id="Capa_1">
                    <g id="Group">
                        <path d="M102.461908,30.3384615 L101.200185,31.6001846 C98.8373538,33.9630154 97.1187692,34.6465231 93.5388308,34.6465231 C86.3004308,34.6465231 81.0465231,29.3926154 81.0465231,22.1542154 C81.0465231,18.5742769 81.7300308,16.8556923 84.0928615,14.4928615 L85.3545846,13.2311385 L72.1234462,0 L0,72.1234462 L13.2311385,85.3545846 L14.4928615,84.0928615 C16.8556923,81.7300308 18.5742769,81.0465231 22.1542154,81.0465231 C29.3926154,81.0465231 34.6465231,86.3004308 34.6465231,93.5388308 C34.6465231,97.1187692 33.9630154,98.8373538 31.6001846,101.200185 L30.3384615,102.461908 L43.5696,115.693046 L115.693046,43.5696 L102.461908,30.3384615 Z M35.3353846,102.410154 C37.4626462,99.8742154 38.2157538,97.4310769 38.2157538,93.5388308 C38.2157538,84.3819692 31.3110769,77.4772923 22.1542154,77.4772923 C18.2619692,77.4772923 15.8188308,78.2304 13.2811077,80.3576615 L5.04689231,72.1234462 L47.1388308,30.0315077 L53.0155692,35.9082462 L55.5390154,33.3848 L49.6622769,27.5080615 L72.1234462,5.04689231 L80.3576615,13.2828923 C78.2304,15.8188308 77.4772923,18.2619692 77.4772923,22.1542154 C77.4772923,31.3110769 84.3819692,38.2157538 93.5388308,38.2157538 C97.4310769,38.2157538 99.8742154,37.4626462 102.411938,35.3353846 L110.646154,43.5696 L88.1849846,66.0307692 L82.3082462,60.1540308 L79.7848,62.6774769 L85.6615385,68.5542154 L43.5696,110.646154 L35.3353846,102.410154 Z" id="Shape"></path>
                        <polygon id="Shape" points="63.7232615 46.6177231 56.5848 39.4792615 59.1082462 36.9558154 66.2467077 44.0942769"></polygon>
                        <polygon id="Shape" points="76.2155692 59.1100308 69.0771077 51.9715692 71.6005538 49.4481231 78.7390154 56.5865846"></polygon>
                    </g>
                </g>
            </g>
        </g>
    </g>
</svg>