<?xml version="1.0" encoding="UTF-8"?>
<svg width="27px" height="17px" viewBox="0 0 27 17" version="1.1" xmlns="http://www.w3.org/2000/svg" xmlns:xlink="http://www.w3.org/1999/xlink">
    <!-- Generator: sketchtool 40.3 (33839) - http://www.bohemiancoding.com/sketch -->
    <title>E49B4D42-02B9-4C01-BC0C-FD4C04449F83</title>
    <desc>Created with sketchtool.</desc>
    <defs></defs>
    <g id="components" stroke="none" stroke-width="1" fill="none" fill-rule="evenodd">
        <g id="icons" transform="translate(-172.000000, -233.000000)">
            <g id="ic/productDetail/AddTry/Add" transform="translate(168.000000, 223.000000)">
                <path d="M17.5,26.8125 C11.5701042,26.8125 6.157375,20.59 4.50679167,18.5 C6.1591875,16.4088125 11.5737292,10.1875 17.5,10.1875 C23.4298958,10.1875 28.842625,16.41 30.4932083,18.5 C28.8408125,20.5911875 23.4262708,26.8125 17.5,26.8125 L17.5,26.8125 Z" id="Path" fill="#F37474"></path>
                <path d="M17.5,13.4224138 C14.6467083,13.4224138 12.3333333,15.695903 12.3333333,18.5 C12.3333333,21.304097 14.6467083,23.5775862 17.5,23.5775862 C20.3532917,23.5775862 22.6666667,21.304097 22.6666667,18.5 C22.6666667,15.695903 20.3532917,13.4224138 17.5,13.4224138 L17.5,13.4224138 Z M17.5,22.4924569 C15.2602083,22.4924569 13.4375,20.7011746 13.4375,18.5 C13.4375,16.2988254 15.2602083,14.5075431 17.5,14.5075431 C19.7397917,14.5075431 21.5625,16.2988254 21.5625,18.5 C21.5625,20.7011746 19.7397917,22.4924569 17.5,22.4924569 L17.5,22.4924569 Z" id="Shape" fill="#FFFFFF"></path>
            </g>
        </g>
    </g>
</svg>