<?xml version="1.0" encoding="UTF-8"?>
<svg width="34px" height="22px" viewBox="0 0 34 22" version="1.1" xmlns="http://www.w3.org/2000/svg" xmlns:xlink="http://www.w3.org/1999/xlink">
    <!-- Generator: sketchtool 41 (35326) - http://www.bohemiancoding.com/sketch -->
    <title>F91B55F1-6B9A-47BA-947F-A7D8D8EF2BB6</title>
    <desc>Created with sketchtool.</desc>
    <defs></defs>
    <g id="home" stroke="none" stroke-width="1" fill="none" fill-rule="evenodd">
        <g id="Product-Infographics" transform="translate(-311.000000, -43.000000)" fill="#FFFFFF">
            <g id="ic/productDetail/AddTry/navbar" transform="translate(308.000000, 34.000000)">
                <path d="M20,9 C10.8313333,9 3,20 3,20 C3,20 10.8256667,31 20,31 C29.1686667,31 37,20 37,20 C37,20 29.1743333,9 20,9 L20,9 Z M20,29.625 C13.0477083,29.625 6.70175,22.42 4.76658333,20 C6.703875,17.578625 13.0519583,10.375 20,10.375 C26.9522917,10.375 33.29825,17.58 35.2334167,20 C33.296125,22.421375 26.9480417,29.625 20,29.625 L20,29.625 Z M20,14.1206897 C16.6547615,14.1206897 13.9425287,16.7531509 13.9425287,20 C13.9425287,23.2468491 16.6547615,25.8793103 20,25.8793103 C23.3452385,25.8793103 26.0574713,23.2468491 26.0574713,20 C26.0574713,16.7531509 23.3452385,14.1206897 20,14.1206897 L20,14.1206897 Z M20,24.6228448 C17.3740374,24.6228448 15.237069,22.5487284 15.237069,20 C15.237069,17.4512716 17.3740374,15.3771552 20,15.3771552 C22.6259626,15.3771552 24.762931,17.4512716 24.762931,20 C24.762931,22.5487284 22.6259626,24.6228448 20,24.6228448 L20,24.6228448 Z" id="Shape"></path>
            </g>
        </g>
    </g>
</svg>